<svg width="240" height="240" viewBox="0 0 240 240" fill="none" xmlns="http://www.w3.org/2000/svg">
<path d="M220 16H20C17.7909 16 16 17.7909 16 20C16 22.2091 17.7909 24 20 24H220C222.209 24 224 22.2091 224 20C224 17.7909 222.209 16 220 16Z" fill="#D8D8D8"/>
<path d="M220 164H20C17.7909 164 16 165.791 16 168C16 170.209 17.7909 172 20 172H220C222.209 172 224 170.209 224 168C224 165.791 222.209 164 220 164Z" fill="#D8D8D8"/>
<path d="M220 184H20C17.7909 184 16 185.791 16 188C16 190.209 17.7909 192 20 192H220C222.209 192 224 190.209 224 188C224 185.791 222.209 184 220 184Z" fill="#D8D8D8"/>
<path d="M177 36H20C17.7909 36 16 37.7909 16 40C16 42.2091 17.7909 44 20 44H177C179.209 44 181 42.2091 181 40C181 37.7909 179.209 36 177 36Z" fill="#D8D8D8"/>
<path d="M98 204H20C17.7909 204 16 205.791 16 208C16 210.209 17.7909 212 20 212H98C100.209 212 102 210.209 102 208C102 205.791 100.209 204 98 204Z" fill="#D8D8D8"/>
<path fill-rule="evenodd" clip-rule="evenodd" d="M96 104C95.4316 102.691 95.1877 101.927 95.2 100.5V99.7C94.1 100.5 93 102.5 93 104H88C88.0131 102.726 88.2769 100.567 88.7765 99.3955C89.2761 98.2236 90.0016 97.1617 90.9116 96.2702C91.8217 95.3787 92.8984 94.6753 94.0803 94.2C95.2622 93.7246 96.5262 93.4868 97.8 93.5V93.6C99.8 91.4 102.6 90 105.8 90H123.5C123.5 82.3 129.9 76 137.8 76H151.1C151.7 76 152 76.5 152 77.1C151.7 78.4 150.7 79.7 149.5 80.4L151 82C151.7 82.6 152 83.4 152 84.4V93C151.971 93.6737 151.748 94.3247 151.358 94.8747C150.967 95.4247 150.426 95.8501 149.8 96.1L146.1 97.6C145.26 97.914 144.334 97.9036 143.502 97.5707C142.669 97.2378 141.991 96.6064 141.6 95.8L139.5 91.8L137.8 91L137 104H96ZM143.1 84.7C143.1 85.7 143.9 86.5 144.9 86.5C145.9 86.5 146.7 85.8 146.7 84.8C146.7 83.8 145.9 83 144.9 83C143.9 83 143.1 83.7 143.1 84.7Z" fill="#9A9A9A"/>
<path d="M137 104H96C96.5684 105.309 97.4488 107.135 98.5 108.1L95.6 115.6C95.098 116.945 95.0281 118.413 95.4 119.8L98.2 130.7C98.2 131.1 98.5 131.4 98.8 131.7C99.1 131.9 99.5 132 99.8 132H107.2C108.4 132 109.2 131 108.9 129.8L106 118.3L108.7 111.3L123.6 113.8V130.3C123.6 131.3 124.4 132 125.3 132H132.4C133.4 132 134.2 131.2 134.2 130.2V110.8C136.016 108.984 136.611 106.624 137 104Z" fill="#9A9A9A"/>
<path d="M88 109.3C88 110.3 88.8 111 89.8 111H91.6C92.6 111 93 110 93 109V104H88V109.3Z" fill="#9A9A9A"/>
</svg>
