<svg width="308" height="222" viewBox="0 0 308 222" fill="none" xmlns="http://www.w3.org/2000/svg">
<rect width="308" height="222" fill="white"/>
<rect x="1" y="11" width="306" height="210" stroke="#E8E7E7" stroke-width="2"/>
<rect x="1" y="1" width="306" height="8" fill="#E8E7E7" stroke="#E8E7E7" stroke-width="2"/>
<rect x="50" y="36" width="208" height="8" rx="4" fill="#D8D8D8"/>
<rect x="50" y="56" width="208" height="8" rx="4" fill="#D8D8D8"/>
<rect x="50" y="76" width="42" height="8" rx="4" fill="#D8D8D8"/>
<path fill-rule="evenodd" clip-rule="evenodd" d="M54 108C51.7909 108 50 109.791 50 112V192C50 194.209 51.7909 196 54 196H254C256.209 196 258 194.209 258 192V112C258 109.791 256.209 108 254 108H54ZM174.115 141.392L181.761 159.365C182.264 160.656 181.958 162.132 180.984 163.128L176.03 167.481C175.373 168.138 174.487 168.51 173.558 168.51H168.056C166.929 168.51 165.868 167.974 165.212 167.055L160.181 160.065C158.671 160.951 156.943 161.509 155.062 161.509C150.774 161.509 147.121 158.916 145.502 155.23C145.251 154.672 144.518 154.541 144.091 154.967L142.768 156.291C142.494 156.553 142.418 156.969 142.593 157.308C144.747 161.563 149.013 164.539 154.001 164.922V164.998L158.463 173.935C159.634 176.265 157.938 179 155.335 179H129.5C127.564 179 126 177.436 126 175.5V166.617C126 149.126 129.927 136.492 144.255 131.339L166.371 123.059C166.907 122.862 167.542 123.179 167.684 123.726C169.007 128.802 165.912 131.569 163.943 132.729C168.603 133.626 172.486 136.885 174.115 141.392Z" fill="#D8D8D8"/>
</svg>
