<svg width="240" height="240" viewBox="0 0 240 240"  xmlns="http://www.w3.org/2000/svg">

<style type="text/css">
<![CDATA[

.tekst-topp {
  fill: #D8D8D8;
  animation-name: tekst-topp;
  animation-duration: 4.5s;
  animation-iteration-count: infinite;
  animation-timing-function:steps(1);
}

.tekst-bunn {
  fill: #D8D8D8;
  animation-name: tekst-bunn;
  animation-duration: 4.5s;
  animation-iteration-count: infinite;
  animation-timing-function:steps(1);
}

.hest-topp {
  fill: #9A9A9A;
  animation-name: hest-topp;
  animation-duration: 4.5s;
  animation-iteration-count: infinite;
  animation-timing-function:steps(1);
}

.hest-bunn {
  fill: #9A9A9A;
  animation-name: hest-bunn;
  animation-duration: 4.5s;
  animation-iteration-count: infinite;
  animation-timing-function:steps(1);
}

@keyframes tekst-topp {
  0% {
    opacity: 0;
  }
  20% {
    opacity: 1;
  }
  100% {
    opacity: 1;
  }
}

@keyframes tekst-bunn {
  0% {
    opacity: 0;
    transform: translateY(-88px)
  }
  20% {
    opacity: 1;
    transform: translateY(-88px)
  }
  40% {
    opacity: 1;
    transform: translateY(0)
  }
  100% {
    opacity: 1;
    transform: translateY(0)
  }
}

@keyframes hest-topp {
  0% {
    opacity: 0;
  }
  60% {
    opacity: 1;
  }
  100% {
    opacity: 1;
  }
}

@keyframes hest-bunn {
  0% {
    opacity: 0;
  }
  80% {
    opacity: 1;
  }
  100% {
    opacity: 1;
  }
}


]]>
</style>


<rect x="16" y="16" width="208" height="8" rx="4" class="tekst-topp"/>
<rect x="16" y="36" width="165" height="8" rx="4" class="tekst-topp"/>

<rect x="16" y="164" width="208" height="8" rx="4" class="tekst-bunn"/>
<rect x="16" y="184" width="208" height="8" rx="4" class="tekst-bunn"/>
<rect x="16" y="204" width="86" height="8" rx="4" class="tekst-bunn"/>

<path fill-rule="evenodd" clip-rule="evenodd" d="M96 104C95.4316 102.691 95.1877 101.927 95.2 100.5V99.7C94.1 100.5 93 102.5 93 104H88C88.0131 102.726 88.2769 100.567 88.7765 99.3955C89.2761 98.2236 90.0016 97.1617 90.9116 96.2702C91.8217 95.3787 92.8984 94.6753 94.0803 94.2C95.2622 93.7246 96.5262 93.4868 97.8 93.5V93.6C99.8 91.4 102.6 90 105.8 90H123.5C123.5 82.3 129.9 76 137.8 76H151.1C151.7 76 152 76.5 152 77.1C151.7 78.4 150.7 79.7 149.5 80.4L151 82C151.7 82.6 152 83.4 152 84.4V93C151.971 93.6737 151.748 94.3247 151.358 94.8747C150.967 95.4247 150.426 95.8501 149.8 96.1L146.1 97.6C145.26 97.914 144.334 97.9036 143.502 97.5707C142.669 97.2378 141.991 96.6064 141.6 95.8L139.5 91.8L137.8 91L137 104H96ZM143.1 84.7C143.1 85.7 143.9 86.5 144.9 86.5C145.9 86.5 146.7 85.8 146.7 84.8C146.7 83.8 145.9 83 144.9 83C143.9 83 143.1 83.7 143.1 84.7Z" class="hest-topp"/>

<path d="M137 104H96C96.5684 105.309 97.4488 107.135 98.5 108.1L95.6 115.6C95.098 116.945 95.0281 118.413 95.4 119.8L98.2 130.7C98.2 131.1 98.5 131.4 98.8 131.7C99.1 131.9 99.5 132 99.8 132H107.2C108.4 132 109.2 131 108.9 129.8L106 118.3L108.7 111.3L123.6 113.8V130.3C123.6 131.3 124.4 132 125.3 132H132.4C133.4 132 134.2 131.2 134.2 130.2V110.8C136.016 108.984 136.611 106.624 137 104Z" class="hest-bunn"/>

<path d="M88 109.3C88 110.3 88.8 111 89.8 111H91.6C92.6 111 93 110 93 109V104H88V109.3Z"  class="hest-bunn"/>

</svg>
