<svg xmlns="http://www.w3.org/2000/svg" fill="none" viewBox="0 0 80 80"><g clip-path="url(#clip0)"><path fill="#40403F" stroke="#4A494A" stroke-width="7" d="M40 76.5a36.5 36.5 0 100-73 36.5 36.5 0 000 73z"/><path fill="#E17926" d="M16.1 24l-1-1.4 2-1.3a6 6 0 00-1 2.7zm9.5 16.5h-1.8l.3 1.3 1.8-.5c-.2-.2-.3-.5-.3-.8zm-.7 11.8l-.3.4-.1 1h.3l1.5-.5v-2L25 52.3zm35.7-35.7a47.1 47.1 0 00-38.3 1.9c1 0 2 .3 2.9.7 1.4-.6 2.8-1.2 4.2-1.6 4.6-1.5 9.3-2.3 14.2-2.4 4.9 0 9.8.9 14.6 2.5a74.6 74.6 0 00-6.6 21c-1 6.8-.3 13.7 1.8 20.2a35.9 35.9 0 01-18 5.3c-3.5 0-6.9-.6-10.1-1.7-.7.3-1.5.4-2.2.4l-.2.6c4 1.6 8.2 2.4 12.5 2.5 7 0 13.8-2.4 20.3-6.3-5.3-13.4-2.6-27.7 5-43.1zm-39.5 14l-1-2-.5.8.6 1.3h1z"/><path fill="#F78F20" d="M52.4 38.7a75.8 75.8 0 017-21.6 45.6 45.6 0 00-35.5 1.7c2 .5 3.9 1.5 5.3 3l.3.3c.6.5 1 1.4.5 2.1a5.5 5.5 0 01-2.6 3.2c-1.5.6-3.3.7-4.8.3-.5-.1-1-.2-1.4-.1-.5 0-.9.4-1 .8l1 2.1h2.2a33 33 0 015.4 0c.8.1 1.7.3 2.5.6l.9.5c.3.3.5.7.6 1 1.2 3.3-1.2 6.1-4.2 7.1a15 15 0 01-3.5.7h-.4l.2 1 2-.5 3-.6c.8-.1 2-.3 2.6.2.3.3.6.7.7 1.2l.9 2.2c.2.5.3 1.2.2 1.8-.2 1.1-1 2-1.9 2.5-1.8 1-3.6 1.8-5.4 2.6l-1.4.8-.1 1.6A15 15 0 0132 53l1.2.4c.6.4 1 1.2 1 2s-.3 1.5-.7 2.2c-1.1 1.7-2.8 3-4.8 3.7l-2.7.8c-.7.2-1.3.5-2 .6v.1c3.7 1.4 7.5 2 11.4 2 6.8 0 13.4-2 19.1-5.7a39.1 39.1 0 01-2.2-20.3z"/><path fill="#FDCDA0" d="M40.9 32.4c1.4-.2 2.7-2 3-4.2.4-2.1-.8-3.9-3-3.7-2 .2-3.2 2.3-2.9 4.4.3 2.2 1.6 3.7 2.9 3.5z"/><path fill="#E17827" d="M48 44.1c-3.8-2.4-5.5-6.5-8.5-10.7-2.8 5-4 10.4-7.5 14.3a32 32 0 0016-3.6z"/><path fill="#C86228" d="M43.5 51.4c-4.9-4.5-6.8-11.2-14-15.2 1.1 6.3 1.3 11.6-2.6 16.1 5.5 1.3 11.2 1 16.6-1z"/><path stroke="#E17827" stroke-miterlimit="10" stroke-width="4" d="M49.4 46.1c-7.3 3.6-15.5 5-23.5 3.9a28 28 0 00-5.3-22.8c10-5 21.3-6.7 32.2-5-4 8.5-5.7 16.5-3.4 24z"/><path fill="#C96328" d="M30.8 23v-.3l-.2-.2-.7-.2h-.3v-.2c-2-1.9-4.3-3.1-7-3.4a6 6 0 00-1.9 0c-2.6.7-4.8 4.2-4.5 6.9.3 1.8 1.6 2.7 2.9 4h.4c.4.1.5-.7.7-1 .2-.5.6-.7 1.1-1l1.5.2a7 7 0 004.8-.2c.4-.2.8-.5 1.1-1l.3-.1.8-.7.4-.2c.3-.4.5-1 .6-1.4V23zM41 37.3l.2-.4a21 21 0 014.6-6.3c1.8-1.9 3.6-3.4 6-4 1.6-.3 3.3-.3 5 0 1 0 2 .4 3 .8 1 .6 1.7 1.3 2.2 2.2 1.7 2.6 3.2 5.3 4.6 8 .9 1.7 1.8 3.4 1.8 5.4 0 1.1-.3 2.3-.5 3.5-1 3-2.2 6.1-3.7 9.1-1.1 3-3 5.4-5.6 7.2-3.9 2.6-8.7 2-13 1.5a24 24 0 01-7-1.3c0-.3 2-1 2.2-1 2.6-1.1 4.9-3 6.6-5.2a8 8 0 001.2-2.9c.2-1.5.8-3 1.6-4.3.9-1.3 2-2.2 2-3.9L52 44c0-.5.3-1 1-1.3.5-.2.6 0 .8-.4l.1-.4c.2-1.5.8-2.9 1.6-4.2-1.5 2.4-3.7 4.1-6.3 5-1.6.6-3.4 1-5 .6a4.5 4.5 0 01-3.7-3.3c0-.8 0-1.8.5-2.7zm-7.6-2.7v-.3l-.2-1.6a1 1 0 00-.5-.6h-.2c-.2-.3-.5-.5-.8-.6a10 10 0 00-2.5-.6 25 25 0 00-5.4 0c-1.9 0-3.5 0-5 .8A6.3 6.3 0 0016 36c-.3 1.4 0 3 .9 4.3 1.5 2 4 2.6 6.2 1.7.1 0 .3 0 .4-.2l.3-.6c.3-.5 1.2-.3 1.7-.3 1.2 0 2.4-.3 3.5-.7 1.6-.6 3-1.7 3.9-3.2 0 0 .2 0 .3-.3v-.3l.2-1.1-.1-.6v-.1zm2.3 9.8c0-.8-.3-1.5-.6-2.1-.3-.4-.4-1-1-1h-.8L33 41c-.6-.6-1.8-.4-2.6-.3-3 .3-5.9 1-8.7 2.2-1.7.6-3.4 1.2-4.6 2.5a6 6 0 00-1.4 2.1c-.5 2.2.1 5 2.3 6 1.4.6 2.8.7 4.3.4.8 0 1.5-.3 2.1-.8l.8-.8c.6-.5 1.3-1 2-1.2 1.8-.7 3.7-1.5 5.5-2.4 1-.5 1.7-1.4 2-2.5v-.4l.6-.2c.2 0 .4-.3.6-.5-.2 0-.1-.4-.2-.7v.1zm-.6 11c-.1-.7-.4-1.4-1-1.5h-.4l-.3-.3-1.2-.4c-2.4-.4-4.8-.3-7.2.4-2 .6-5.6 2-5.8 4.4-.1 1 .2 2 .8 2.6.6 1.2 1.8 2 3.2 2.2 1 0 2-.3 3-.7 1-.3 1.8-.4 2.7-.8a8.9 8.9 0 004.5-3.3c.6 0 1-.3 1.3-.6l.3-.5c.3-.4.3-1 0-1.6z" opacity=".5"/><path fill="#F7DDC4" d="M29.3 22c-1.8-2-4.3-3.2-6.9-3.5a4 4 0 00-1.9 0c-2.6.8-4.8 4.3-4.5 7 .3 1.7 1.5 2.7 2.8 3.7l.4.2c.4.1.6-.7.8-1 .2-.4.6-.7 1-.8h1.4c1.6.5 3.3.4 4.9-.1a5.2 5.2 0 002.6-3.2c.2-.4.2-.8.1-1.2l-.6-.9V22z"/><path fill="#EACEB1" d="M27.4 27.5l.5-.3c-1.6-.2-2.2 0-2.6-.1-.4-.1-1.7 0-2.2-.2-.5-.2-1-.1-1.5-.2l-1.7-.3c-1-.1-1.7-.5-2.3-.1l-1 .7c.7 1 1.6 1.8 2.7 2.3.4.1.6-.7.7-1 .3-.3.7-.7 1.1-.8h1.4c1.7.6 3.4.5 4.9 0z"/><path fill="#F8E9DB" d="M30.2 23.1l-.6-.9-.3-.3c-1.8-1.8-4.3-3-6.9-3.4a4 4 0 00-1.9 0 4.3 4.3 0 00-2.1 4c.2 3.5.9 3.5 2.7 5 .5 0 1 0 1.4.2 1.6.4 3.3.3 4.9-.2a5.2 5.2 0 002.6-3.2c.2-.4.3-.8.2-1.2z" opacity=".3"/><path fill="#34B9EB" d="M30.5 22.6c-.3-.2-.5-.3-.8-.3l-.9-.3-1.4-.4c-1.2-.3-2.6-.6-3.7 0a2 2 0 00-1 1.5c-.2.6 0 1.2.4 1.6a5 5 0 001.8.9c1 .5 2.3.8 3.4 1h.4l.2-.2c.4-.2.7-.5 1-1 .3-.3.5-.8.6-1.3l.1-1v-.5z"/><path fill="#F7DDC4" d="M66.5 37.5l-2.8-5.1-.5-.9-.2-.3-.4-.6-.2-.3-.6-.9c-.5-1-1.3-1.7-2.1-2.2-1-.4-2-.6-3.1-.7-1.7-.4-3.4-.4-5-.1-2.4.7-4.5 2-6 4-1.8 1.9-3.4 4-4.6 6.3l-.2.4c-.4 1-.5 2-.3 2.8.5 1.7 1.9 3 3.6 3.3h2.3c1-.1 2-.4 2.9-.8 2.6-1 4.8-2.6 6.3-4.9l-1 2.1-.7 2v.5c-.3.3-.7.3-1 .4l-.3.2c-.3 5.8.7 11.6 3 17a45 45 0 01-9.4 4.5c4.2.6 8.6.8 12.3-1.6 2.6-1.8 4.3-4.4 5.6-7.3 1.4-3 2.6-6 3.6-9 .3-1.3.5-2.4.5-3.6 0-1.8-1-3.5-1.7-5.2z"/><path fill="#EACEB1" d="M52.7 44.3v2.8l.1.8v.2l.1 1 .3 2v.3l.1.7.1.3.1.7.1.4.1.6.1.4.2.6.1.4.2.6.1.4.2.6.1.4.2.7.1.3.4 1-1 .6-.2.1-.9.7v.1l-1 .6-.2.1-1 .5-.1.1-1 .5-.1.1-1 .5-.1.1-1.1.4h-.1l-1 .4c4 .6 8.5.8 12.2-1.6 1-.7 2-1.7 2.8-2.7-1-6-4.2-11.6-8.9-15.7zm8.6-11.8c1.1-1.9 1-1.6.2-3.6-.4-.6-1-1.2-1.7-1.6a78 78 0 00-5-1 7.2 7.2 0 012.9 5.6c0 1.7-1.5 4.3-2.2 5.7-.7 1.4-3.6 7.2.6 2 1.3-1.8 2.9-2.8 3.8-4.3l1.4-2.8z"/><path fill="#F8E9DB" d="M56.7 27.6c-.4-.4-1.2-1.3-1.8-1.5-1-.1-2 0-3 .2-2.3.6-4.3 2.2-5.9 4-1.9 1.9-3.4 4-4.6 6.3l-.2.4c-.4 1-.5 2-.3 2.8a4.3 4.3 0 003.3 3.2c3.6-.2 6.9-1.8 9.3-4.3 4-4 5.4-9 3.2-11.1z" opacity=".3"/><path fill="#9F87BF" d="M45.6 34.3l-.9.6-2 1.7c-.7.6-1.7 1.2-2 2.2-.1.5 0 1 0 1.6.3.9.9 1.7 1.6 2.2 1.4.9 3 0 4-.8 1.1-1 2.4-1.6 3-2.9.6-1.3-.2-2.4-.9-3.2-.7-1-1.6-1.7-2.7-1.4z"/><path fill="#fff" d="M48.7 35.9l-7.2 5.8.8.8c1.4.9 3 0 4-.8 1.1-1 2.4-1.6 3-2.9.6-.9 0-2-.6-3z" opacity=".1"/><path fill="#F7DDC4" d="M32.1 31.8l-.9-.5a10 10 0 00-2.5-.6c-1.7-.2-3.6-.2-5.4 0-1.9 0-3.4 0-5 .8a6.1 6.1 0 00-2.7 4.3c-.3 1.4 0 3 .9 4.3 1.5 1.9 4 2.6 6.2 1.7l.4-.2.3-.6c.3-.5 1.2-.3 1.7-.3a15 15 0 003.5-.7c3-1 5.4-3.9 4.2-7.1a3 3 0 00-.7-1.1z"/><path fill="#EACEB1" d="M24.3 43c.5-.1-.1-1.4-.5-2.2l-.2-.1c.4-.2 1-.1 1.5-.1a15 15 0 003.5-.7 7.2 7.2 0 003.3-2.4c-2.6-.3-3.8 2.2-7.7 1.8-1.6 0-3.1.1-4.6.3-1.5 0-2.7-.7-3.2.2v.2a5 5 0 003.5 2h1l3.1.9h.3z"/><path fill="#F8E9DB" d="M32.1 31.8l-.9-.5a10 10 0 00-2.5-.6c-1.7-.2-3.6-.2-5.4 0-1.9 0-4.3.8-4.6 3.8-.5 5.6 8 5.7 10.2 5.2a5 5 0 004-5.8l-.2-1a2 2 0 00-.6-1.1z" opacity=".3"/><path fill="#5D509E" d="M25 34.7c0-.6.2-1.1.6-1.5a3 3 0 012-.9l1.1-.2 3.3-.3.5.1c.3.1.4.4.5.6.2.5.3 1 .2 1.6l-.2 2.1-.1.3c-.2.3-.7.4-1 .4-1.8.2-3.6.2-5.4 0-1-.5-1.5-1.3-1.5-2.2z"/><path fill="#DDC1A8" d="M19.6 29l-.7-.3h-.6l.6.5h.2l.2.2h.3l.2-.4h-.2zm.2 13c1.3 0 2.7.5 4.1 1h.4c.5-.1-.1-1.4-.5-2.2-.1-.1-.2-.2-.3-.1-.7.9-3.4 1.3-3.7 1.4zm33 6.3v-.2.2zm0-2.4v-1 1zm.2-3.3c.3-.1.8-.1 1-.4v-.4c0-.8.3-1.5.6-2.2l1-2a8.9 8.9 0 01-2.8 2.9l-.2 2.2.4-.1zm-.3 4.5v1-1zm0-1.2v1-1z"/><path fill="#F7DDC4" d="M15.4 47.4a6 6 0 011.4-2c1.2-1.4 3-2 4.6-2.6 2.8-1.1 5.8-1.8 8.7-2.2.8-.1 2-.3 2.6.3.3.3.5.7.7 1.2l.8 2.2c.2.6.2 1.3.2 2-.3 1-1 1.9-2 2.4-1.8.9-3.7 1.7-5.5 2.4-.7.3-1.4.7-2 1.2A4.1 4.1 0 0122 54c-1.5.3-3 .2-4.3-.4-2.2-1.3-2.8-4-2.3-6z"/><path fill="#EACEB1" d="M23.7 53.1l1.5-1.3v-.1h.2c.4.3-.7 1.2-.6 1.7v.5c-.1.2-.3.1-.5.1-1.3.2-.7-.5-2-.2l1.4-.7zm8.5-5.7c-.6 0-7.5 2.8-8.5 3-1.4.7-2.8 1-4.1 1-1.6 0-2 .2-2.5.7l-.5.5 1 .8c1.5.6 3 .7 4.4.4.8 0 1.5-.3 2.1-.8l.8-.8c.6-.5 1.3-1 2-1.2 1.8-.7 3.7-1.5 5.5-2.4.6-.3 1-.8 1.4-1.3l-1.6.1z"/><path fill="#F8E9DB" d="M34.2 44.2l-.8-2.2c-.1-.4-.4-.8-.7-1.2-.6-.6-1.8-.4-2.6-.3-1 0-2 .2-3 .5-1.4.3-2.9.8-4.4 1.3-2.8 1.7-3.7 4-3 5.8.7 2.4 4.5 3 8.4 2 1.5-.6 3-.7 4.3-1.5 1-.5 1.7-1.4 2-2.5 0-.7 0-1.3-.2-1.9z" opacity=".3"/><path fill="#41439A" d="M27.6 43.2c.6-.6 1.4-1.1 2.3-1.2l2.8-.6 1.3-.2c.3 0 .6.5.9 1 .4.7.6 1.4.6 2l-.1.8-.6.5-1.5.6-2.4.7c-1 .2-2 .5-3 0-.3-.4-.6-.9-.7-1.4a3 3 0 01.2-2l.2-.2z"/><path fill="#fff" d="M35.4 43.3l-8 2.2c0 .4.4.8.6 1.1.8.7 2 .4 3 .1l2.4-.7 1.5-.6.6-.5v-.8l-.1-.8z" opacity=".4"/><path fill="#F7DDC4" d="M33.3 53.5l-1.2-.4c-2.4-.4-4.8-.3-7.2.4-2 .6-5.6 2-5.8 4.4-.1 1 .2 1.9.8 2.6.6 1.2 1.8 2 3.2 2.2 1 0 2-.3 3-.7 1-.3 1.9-.4 2.7-.8 2-.7 3.7-2 4.8-3.6a4 4 0 00.7-2.2c0-.8-.4-1.5-1-1.9z"/><path fill="#EACEB1" d="M29.6 59.9c-1.6.5-3 .6-4.5 1s-3-1.1-3.9 1c.5.4 1.2.7 2 .7.9 0 2-.3 2.9-.7 1-.3 1.9-.4 2.7-.8 1.7-.5 3.1-1.6 4.2-3a21 21 0 01-3.4 1.8z"/><path fill="#F8E9DB" d="M33.3 53.5l-1.2-.4c-2.4-.4-4.7-.3-7 .4-1.6 1.4-2.4 3-1.9 4.4.6 2 2.9 4.1 7.5 2.5a9 9 0 003-2.8 4 4 0 00.7-2.2c-.1-.7-.5-1.5-1.1-1.9z" opacity=".3"/><path fill="#005C9F" d="M27.5 57c.4.8 1.1 1.4 2 1.5l1.8-.1 2-.5c.6-.1 1-.3 1.3-.6l.3-.5c.2-.6.2-1.2 0-1.7-.1-.6-.4-1.3-1-1.4h-1c-1 .1-1.9.5-2.9.7a5 5 0 00-1.7.6 2 2 0 00-1 1.4l.2.6z"/><path fill="#fff" d="M22.7 23v.1c-.2.6 0 1.2.4 1.6a5 5 0 001.8 1l3.4 1h.4l.2-.3c.4-.2.7-.5 1-1l.3-.5-7.5-2zM25 35c0 .8.6 1.4 1.4 2h5.4c.3-.2.8-.2 1-.5v-.3l.3-2-8.1.8zm2.6 22c.4.9 1.1 1.4 2 1.5h1.7l2-.6c.6 0 1-.3 1.3-.6l.3-.5c.2-.5.2-1 0-1.5l-7.3 1.8z" opacity=".3"/></g><defs><clipPath id="clip0"><path fill="#fff" d="M0 0h80v80H0z"/></clipPath></defs></svg>