<svg xmlns="http://www.w3.org/2000/svg" fill="none" viewBox="0 0 304 208"><path fill="#fff" d="M0 0h304v208H0z"/><path fill="#323232" d="M30.7 36.8h-4V41H25V31h6.3v1.4h-4.6v3h4v1.4zm1.4.4c0-.7.1-1.3.4-2 .3-.5.7-1 1.2-1.3.5-.3 1.1-.4 1.8-.4 1 0 1.8.3 2.4 1 .7.6 1 1.4 1 2.5v.4c0 .7 0 1.4-.4 2a3 3 0 01-1.2 1.3c-.5.3-1 .4-1.8.4-1 0-1.8-.3-2.5-1a4 4 0 01-1-2.8zm1.6.2c0 .7.2 1.3.5 1.8.3.4.8.6 1.3.6.6 0 1-.2 1.3-.6.4-.5.5-1.1.5-2a3 3 0 00-.5-1.7c-.3-.5-.7-.7-1.3-.7-.5 0-1 .2-1.3.6-.3.5-.5 1.1-.5 2zM44.2 35h-.6c-.8 0-1.3.3-1.6.8V41h-1.6v-7.4H42v.8c.4-.6 1-1 1.7-1l.5.2V35zm2.6-1.5v.9c.6-.7 1.3-1 2.2-1 1.6 0 2.4.8 2.4 2.6V41h-1.7v-4.8c0-.5 0-.8-.3-1-.2-.3-.5-.4-1-.4-.6 0-1.1.3-1.5 1V41h-1.6v-7.4h1.5zM57.5 41l-.2-.7c-.5.6-1.2.8-2 .8-.7 0-1.3-.2-1.7-.6a2 2 0 01-.8-1.6c0-.8.3-1.4 1-1.8.5-.4 1.3-.6 2.4-.6h1V36c0-.4 0-.7-.3-1-.2-.2-.5-.3-1-.3l-.9.3c-.2.2-.3.4-.3.7H53c0-.4.1-.7.4-1.1.3-.4.6-.6 1.1-.8.5-.2 1-.3 1.6-.3a3 3 0 012 .6c.5.5.8 1 .8 1.9v3.3c0 .7.1 1.2.3 1.6v.1h-1.7zm-1.8-1.2c.3 0 .6 0 .9-.2l.7-.7v-1.4h-1c-.6 0-1 .1-1.3.3a1 1 0 00-.5 1c0 .3.1.5.3.7.2.2.5.3.9.3zm7.5-1l1.5-5.2h1.7L64 41h-1.5l-2.6-7.4h1.8l1.6 5.3zm5.8-5.2v.9c.6-.7 1.3-1 2.2-1 1.6 0 2.3.8 2.4 2.6V41h-1.7v-4.8c0-.5 0-.8-.3-1-.2-.3-.5-.4-1-.4-.7 0-1.2.3-1.5 1V41h-1.6v-7.4H69zM30.8 132.6h-4v3h4.7v1.4H25v-10h6.5v1.4h-4.8v2.8h4.1v1.4zm4-4.8v1.8h1.4v1.2h-1.4v4.2l.2.6.6.2.6-.1v1.3a4 4 0 01-1.1.1c-1.3 0-2-.7-2-2v-4.3H32v-1.2h1.2v-1.8h1.6zm4.7 0v1.8h1.3v1.2h-1.3v4.2c0 .2 0 .5.2.6l.6.2.6-.1v1.3a4 4 0 01-1.1.1c-1.3 0-2-.7-2-2v-4.3h-1.2v-1.2h1.2v-1.8h1.7zm5.8 9.3c-1 0-1.9-.3-2.5-1-.7-.6-1-1.5-1-2.6v-.2c0-.8.1-1.4.4-2 .3-.6.7-1 1.2-1.3.5-.4 1.1-.5 1.8-.5 1 0 1.7.3 2.3 1 .5.6.8 1.5.8 2.7v.6h-4.8c0 .6.2 1.1.6 1.5.4.3.8.5 1.3.5.8 0 1.4-.3 1.9-1l.9 1a3 3 0 01-1.2 1c-.5.2-1 .3-1.7.3zm-.1-6.3c-.5 0-.9.2-1.2.5-.2.3-.4.7-.5 1.3h3.2v-.1c0-.6-.2-1-.5-1.3-.2-.3-.6-.4-1-.4zm8.3.3h-.7c-.8 0-1.3.3-1.5.8v5.1h-1.7v-7.4h1.6v.8c.4-.6 1-1 1.7-1l.6.2v1.5zm2.6-1.5v.9c.6-.7 1.3-1 2.2-1 1.5 0 2.3.8 2.3 2.6v4.9H59v-4.8c0-.5-.1-.8-.3-1-.2-.3-.6-.4-1-.4-.7 0-1.2.3-1.5 1v5.2h-1.7v-7.4h1.6zm10.6 7.4l-.1-.7c-.6.6-1.2.8-2 .8-.7 0-1.3-.2-1.8-.6a2 2 0 01-.7-1.6c0-.8.3-1.4.9-1.8.6-.4 1.4-.6 2.5-.6h1v-.5c0-.4-.1-.7-.3-1-.2-.2-.6-.3-1-.3s-.7.1-1 .3c-.2.2-.3.4-.3.7h-1.7c0-.4.2-.7.5-1.1.2-.4.6-.6 1-.8.5-.2 1-.3 1.6-.3.9 0 1.6.2 2 .6.6.5.8 1 .9 1.9v3.3c0 .7 0 1.2.2 1.6v.1h-1.7zm-1.8-1.2c.3 0 .7 0 1-.2.2-.2.5-.4.6-.7v-1.4h-.9c-.6 0-1 .1-1.4.3a1 1 0 00-.4 1c0 .3 0 .5.3.7.2.2.5.3.8.3zm7.5-1l1.6-5.2h1.7L73 137h-1.4l-2.6-7.4h1.7l1.6 5.3zm5.9-5.2v.9c.6-.7 1.3-1 2.2-1 1.5 0 2.3.8 2.3 2.6v4.9h-1.6v-4.8c0-.5-.1-.8-.4-1-.2-.3-.5-.4-1-.4-.6 0-1.1.3-1.4 1v5.2h-1.7v-7.4h1.6z"/><path fill="#fff" stroke="#5F5F5F" d="M24.5 56.5h255v31h-255zM24.5 152.5h255v31h-255z"/></svg>