<svg xmlns="http://www.w3.org/2000/svg" fill="none" viewBox="0 0 256 64"><path fill="#323232" d="M6.9 12.7h-4v2.7h4.7V17H.9V7h6.6v1.7H3v2.4h4v1.6zm4.1-5v1.9h1.3v1.5H11v3.6c0 .3 0 .5.2.6 0 .2.3.2.6.2h.5V17a4 4 0 01-1.2.1c-1.3 0-2-.7-2-2v-4H7.8V9.6H9V7.8h2zm4.7 0v1.9H17v1.5h-1.3v3.6c0 .3 0 .5.2.6 0 .2.3.2.6.2h.6V17a4 4 0 01-1.2.1c-1.4 0-2.1-.7-2.1-2v-4h-1.1V9.6h1V7.8h2zm5.8 9.4c-1 0-2-.3-2.7-1-.6-.6-1-1.5-1-2.6v-.2c0-.8.2-1.4.5-2 .2-.6.7-1 1.2-1.4.5-.3 1.1-.4 1.8-.4 1 0 1.8.3 2.4 1 .5.6.8 1.5.8 2.6v.8h-4.7c0 .5.3 1 .6 1.2.3.3.7.4 1.2.4.8 0 1.4-.2 1.8-.8l1 1.1a3 3 0 01-1.2 1 4 4 0 01-1.7.3zm-.2-6c-.4 0-.7.1-1 .4a2 2 0 00-.4 1.1h2.7v-.2c0-.4-.1-.7-.4-1-.2-.2-.5-.3-1-.3zm8.5.4l-.7-.1c-.7 0-1.2.3-1.5.8V17h-2V9.6h2v.9c.4-.7 1-1 1.6-1h.7v2zm2.8-1.9v.9c.6-.7 1.3-1 2.2-1 .8 0 1.4.2 1.7.7.4.4.6 1.1.6 2V17h-2v-4.7c0-.4 0-.8-.2-1l-1-.2c-.5 0-1 .2-1.2.7V17h-2V9.6h1.9zM42.9 17l-.2-.7c-.5.6-1 .8-1.8.8s-1.4-.2-1.9-.6a2 2 0 01-.7-1.6c0-.8.3-1.4.9-1.8.6-.4 1.4-.6 2.5-.6h1V12c0-.4-.2-.7-.3-.9-.2-.2-.5-.3-.9-.3-.3 0-.6.1-.7.3-.2.1-.3.3-.3.6h-2c0-.4.1-.8.4-1.2.3-.3.6-.6 1.1-.8a4 4 0 011.6-.3c1 0 1.7.2 2.2.7.5.4.8 1 .8 1.9v3.2c0 .7.1 1.2.3 1.6v.1h-2zm-1.6-1.4c.3 0 .5 0 .8-.2l.5-.5v-1.3H42c-1 0-1.5.4-1.6 1v.2l.3.6.7.2zm7.5-1l1.4-5h2L49.7 17H48l-2.5-7.4h2l1.4 5zm6.1-5v.9c.6-.7 1.3-1 2.2-1 .8 0 1.4.2 1.8.7.3.4.5 1.1.6 2V17h-2v-4.7c0-.4-.1-.8-.3-1l-1-.2c-.5 0-.9.2-1.2.7V17h-2V9.6h2z"/><path fill="#fff" stroke="#5F5F5F" d="M.5 32.5h255v31H.5z"/></svg>