<svg xmlns="http://www.w3.org/2000/svg" fill="none" viewBox="0 0 256 32"><path fill="#fff" stroke="#5F5F5F" d="M.5.5h255v31H.5z"/><path fill="#767676" d="M14.8 16.4h-4.3v3.5h5V21H9.2V11h6.2v1.1h-5v3.2h4.4v1.1zm3.8-4.6v1.8H20v1h-1.4v4.6c0 .3 0 .5.2.6.1.2.3.3.6.3l.6-.1v1l-1 .1c-.5 0-1-.1-1.2-.5-.3-.3-.4-.8-.4-1.4v-4.6H16v-1h1.4v-1.8h1.2zm4.6 0v1.8h1.4v1h-1.4v4.6c0 .3 0 .5.2.6.1.2.3.3.6.3l.6-.1v1l-1 .1c-.5 0-1-.1-1.2-.5-.3-.3-.5-.8-.5-1.4v-4.6h-1.3v-1h1.3v-1.8h1.3zm6 9.3c-1 0-1.9-.3-2.5-1-.6-.6-1-1.5-1-2.6v-.2c0-.8.2-1.4.5-2a3 3 0 012.8-1.8c1 0 1.7.3 2.2 1 .6.6.8 1.5.8 2.6v.6h-5c0 .7.2 1.3.7 1.7.4.5.9.7 1.5.7.5 0 .8 0 1.1-.3l.9-.7.7.6c-.6 1-1.5 1.4-2.8 1.4zm-.2-6.6c-.5 0-1 .2-1.3.6-.3.3-.6.9-.6 1.5h3.7c0-.7-.2-1.2-.6-1.6-.3-.3-.7-.5-1.2-.5zm8 .2h-.5c-.9 0-1.4.3-1.7 1V21h-1.3v-7.4h1.2v.9c.5-.7 1-1 1.8-1h.6v1.2zm2.4-1.1v1c.6-.8 1.4-1.1 2.3-1.1 1.6 0 2.3.8 2.4 2.6V21h-1.3v-4.9c0-.5-.1-1-.4-1.2-.2-.2-.6-.4-1-.4-.5 0-.9.1-1.2.4l-.7.8V21h-1.3v-7.4h1.2zM50.5 21l-.1-.8c-.6.6-1.3 1-2.1 1s-1.4-.3-1.8-.7a2 2 0 01-.7-1.6c0-.7.2-1.3.8-1.7.6-.5 1.4-.7 2.5-.7h1.2V16c0-.4-.1-.8-.4-1-.2-.3-.6-.4-1.1-.4-.5 0-.9.1-1.2.3-.3.3-.4.5-.4.9h-1.3c0-.4.1-.8.4-1.1.3-.4.6-.6 1-.8l1.5-.3a3 3 0 012 .6c.5.4.8 1 .8 1.8v3.4c0 .6 0 1.2.3 1.6v.1h-1.4zm-2-1c.3 0 .7 0 1-.3.4-.2.7-.4.8-.8v-1.5h-1c-1.5 0-2.3.5-2.3 1.4 0 .4.2.7.4.9.3.2.6.3 1 .3zm7.4-.7l1.8-5.7H59L56.4 21h-1l-2.7-7.4H54l2 5.7zm5.6-5.7v1c.6-.8 1.3-1.1 2.2-1.1 1.6 0 2.4.8 2.4 2.6V21h-1.3v-4.9c0-.5-.1-1-.4-1.2-.2-.2-.6-.4-1-.4-.5 0-.8.1-1.2.4l-.7.8V21h-1.2v-7.4h1.2z"/></svg>