<svg xmlns="http://www.w3.org/2000/svg" fill="none" viewBox="0 0 296 56"><path fill="#fff" d="M0 0h296v56H0z"/><path fill="#2D4D9F" d="M208.5 29.1V33h-1.3V23h3.6c1.1 0 2 .3 2.6.9.6.5 1 1.3 1 2.2 0 1-.4 1.7-1 2.2-.6.5-1.5.8-2.6.8h-2.3zm0-1h2.3c.7 0 1.3-.2 1.6-.6.4-.3.6-.8.6-1.4 0-.6-.2-1-.6-1.4-.3-.4-.8-.6-1.5-.6h-2.4v4zm10.3 5c-1 0-1.9-.3-2.5-1-.6-.6-1-1.5-1-2.6v-.2c0-.8.2-1.4.5-2 .3-.6.7-1 1.2-1.3a3 3 0 011.6-.5c1 0 1.7.3 2.2 1 .6.6.8 1.5.8 2.6v.6h-5c0 .7.3 1.3.7 1.7.4.5.9.7 1.5.7.5 0 .9 0 1.2-.3l.8-.7.8.6c-.7 1-1.6 1.4-2.8 1.4zm-.2-6.6c-.5 0-1 .2-1.3.6-.3.3-.5.9-.6 1.5h3.7c0-.7-.2-1.2-.5-1.6-.3-.3-.8-.5-1.3-.5zm8 .2h-.5c-.9 0-1.4.3-1.7 1V33H223v-7.4h1.2v.9c.5-.7 1-1 1.8-1h.6v1.2zm5.6 4.3a1 1 0 00-.4-.8l-1.4-.4-1.5-.5c-.4-.2-.6-.5-.8-.7-.2-.3-.3-.6-.3-1 0-.6.3-1 .8-1.5a3 3 0 012-.6 3 3 0 012 .6c.5.4.8 1 .8 1.7H232c0-.4-.2-.7-.5-1-.2-.2-.6-.3-1-.3-.5 0-.9.1-1.1.3a1 1 0 00-.4.8c0 .3 0 .5.3.7l1.3.4 1.6.5c.4.2.7.5.8.7.2.3.3.7.3 1 0 .7-.2 1.2-.8 1.6-.5.4-1.2.6-2 .6-.6 0-1.1 0-1.6-.3-.4-.2-.8-.5-1-.9-.3-.3-.4-.7-.4-1.2h1.2c0 .4.2.8.5 1 .3.3.8.4 1.3.4a2 2 0 001.1-.3c.3-.2.5-.4.5-.8zm2.5-1.8c0-.7.2-1.3.5-2 .3-.5.7-1 1.2-1.3.5-.3 1-.4 1.7-.4 1 0 1.8.3 2.4 1a4 4 0 011 2.8c0 .8-.2 1.5-.4 2a3.1 3.1 0 01-3 1.8c-1 0-1.8-.3-2.4-1a4 4 0 01-1-2.8zm1.3.2c0 .8.2 1.5.6 2 .4.5.9.7 1.5.7.7 0 1.2-.2 1.5-.7.4-.6.6-1.3.6-2.2 0-.8-.2-1.4-.6-2-.3-.4-.9-.7-1.5-.7s-1.1.3-1.5.8c-.4.4-.6 1.2-.6 2zm8.3-3.8v1c.6-.8 1.3-1.1 2.2-1.1 1.6 0 2.4.8 2.4 2.6V33h-1.3v-4.9c0-.5-.1-1-.4-1.2-.2-.2-.6-.4-1-.4-.5 0-.8.1-1.1.4-.4.2-.6.5-.8.8V33h-1.2v-7.4h1.2zm9 5.7l1.8-5.7h1.3l-2.7 7.4h-1l-2.6-7.4h1.3l1.8 5.7zm7.2 1.8c-1 0-1.8-.3-2.4-1-.6-.6-1-1.5-1-2.6v-.2c0-.8.2-1.4.5-2a3 3 0 012.8-1.8c1 0 1.7.3 2.2 1 .6.6.8 1.5.8 2.6v.6h-5c0 .7.2 1.3.7 1.7.4.5.9.7 1.5.7.5 0 .8 0 1.1-.3l.9-.7.7.6c-.6 1-1.5 1.4-2.8 1.4zm-.1-6.6c-.5 0-1 .2-1.3.6-.3.3-.6.9-.6 1.5h3.7c0-.7-.2-1.2-.6-1.6-.3-.3-.7-.5-1.2-.5zm8 .2h-.5c-.9 0-1.4.3-1.7 1V33h-1.3v-7.4h1.2v.9c.5-.7 1-1 1.8-1h.6v1.2zm2.4-1.1v1c.6-.8 1.4-1.1 2.3-1.1 1.6 0 2.3.8 2.4 2.6V33h-1.3v-4.9c0-.5-.1-1-.4-1.2-.2-.2-.6-.4-1-.4-.5 0-.9.1-1.2.4l-.7.8V33h-1.3v-7.4h1.2zM206 34.4h70.4v.7H206v-.7zM27.8 33h-1.3l-5-7.7V33h-1.3V23h1.3l5 7.8V23h1.3v10zm4.6-1.9l1.7-5.5h1.3l-3 8.5c-.4 1.3-1.1 1.9-2.1 1.9H30l-.4-.1v-1h.3c.4 0 .8-.1 1-.3l.6-1 .3-.7-2.7-7.3h1.4l1.9 5.5zm5.4-4.6c.6-.7 1.3-1 2.2-1 1.6 0 2.4.8 2.4 2.6V33H41v-4.9c0-.5-.1-1-.3-1.2-.3-.2-.7-.4-1.2-.4-.4 0-.7.1-1 .4-.4.2-.6.5-.8.8V33h-1.2V22.5h1.2v4zm9.5 6.6c-1 0-1.8-.3-2.4-1-.6-.6-1-1.5-1-2.6v-.2c0-.8.2-1.4.5-2 .3-.6.6-1 1.2-1.3a3 3 0 011.6-.5c1 0 1.7.3 2.2 1 .6.6.8 1.5.8 2.6v.6h-5c0 .7.3 1.3.7 1.7.4.5.9.7 1.5.7.5 0 .8 0 1.2-.3l.8-.7.7.6c-.6 1-1.5 1.4-2.8 1.4zm-.1-6.6c-.5 0-1 .2-1.3.6-.3.3-.6.9-.6 1.5H49c0-.7-.2-1.2-.6-1.6-.3-.3-.7-.5-1.2-.5zm6.2-2.7v1.8h1.4v1h-1.4v4.6c0 .3 0 .5.2.6.1.2.3.3.6.3l.6-.1v1l-1 .1c-.5 0-1-.1-1.2-.5-.3-.3-.4-.8-.4-1.4v-4.6h-1.4v-1h1.4v-1.8h1.2zm7.2 7.2a1 1 0 00-.4-.8l-1.3-.4-1.6-.5-.8-.7c-.2-.3-.3-.6-.3-1 0-.6.3-1 .8-1.5a3 3 0 012-.6 3 3 0 012 .6c.5.4.8 1 .8 1.7h-1.3c0-.4-.1-.7-.4-1-.3-.2-.7-.3-1.1-.3-.5 0-.9.1-1.1.3a1 1 0 00-.4.8c0 .3.1.5.4.7.2.1.6.3 1.3.4l1.5.5.9.7c.2.3.3.7.3 1 0 .7-.3 1.2-.8 1.6-.6.4-1.3.6-2.1.6-.6 0-1.1 0-1.6-.3-.4-.2-.8-.5-1-.9-.3-.3-.4-.7-.4-1.2h1.2c0 .4.2.8.5 1 .4.3.8.4 1.3.4a2 2 0 001.2-.3c.2-.2.4-.4.4-.8zm9.2-1.6c0 1.1-.3 2-.8 2.7-.5.7-1.2 1-2.1 1-1 0-1.7-.3-2.2-1v.9h-1.2V22.5h1.3v4c.5-.7 1.2-1 2-1 1 0 1.7.3 2.2 1 .5.7.8 1.6.8 2.8zm-1.3-.2c0-.8-.2-1.5-.5-2-.3-.4-.8-.7-1.4-.7-.9 0-1.5.4-1.8 1.2v3.2c.4.8 1 1.2 1.8 1.2.6 0 1-.3 1.4-.7.3-.5.5-1.2.5-2.2zm6.4-2.5h-.6c-.8 0-1.4.3-1.7 1V33h-1.2v-7.4h1.2v.9c.4-.7 1-1 1.8-1h.5v1.2zm4.1 6.4c-1 0-1.8-.3-2.4-1-.6-.6-1-1.5-1-2.6v-.2c0-.8.2-1.4.5-2 .2-.6.6-1 1.1-1.3a3 3 0 011.7-.5c1 0 1.7.3 2.2 1 .6.6.8 1.5.8 2.6v.6h-5c0 .7.2 1.3.6 1.7.5.5 1 .7 1.6.7.5 0 .8 0 1.1-.3l.9-.7.7.6c-.6 1-1.5 1.4-2.8 1.4zm-.1-6.6c-.5 0-1 .2-1.3.6-.3.3-.6.9-.6 1.5h3.7c0-.7-.2-1.2-.6-1.6-.3-.3-.7-.5-1.2-.5zm6.8 4.8l1.9-5.7h1.3L86.2 33h-1l-2.6-7.4h1.3l1.8 5.7z"/><path fill="#2D4D9F" d="M19 34.4h70.1v.7H19v-.7z"/><path fill="#AE5809" d="M126 28.6c-1-.4-1.9-.8-2.4-1.2-.5-.5-.7-1-.7-1.8s.3-1.4.9-2c.6-.4 1.4-.7 2.4-.7a4 4 0 011.9.4c.5.3 1 .6 1.2 1.1.3.5.5 1 .5 1.5h-1.4c0-.6-.2-1-.5-1.4-.4-.3-1-.5-1.7-.5-.6 0-1.1.1-1.5.4-.3.3-.5.7-.5 1.2 0 .4.2.8.5 1 .3.3 1 .6 1.8.8a8 8 0 011.9.8c.5.3.8.6 1 1 .3.3.4.8.4 1.3 0 .8-.3 1.4-1 2a4 4 0 01-2.5.6c-.7 0-1.3 0-1.9-.4-.6-.2-1-.6-1.4-1-.3-.5-.5-1-.5-1.6h1.4c0 .6.2 1 .6 1.4.5.4 1 .6 1.8.6.7 0 1.2-.2 1.6-.5.4-.2.6-.6.6-1.1 0-.5-.2-.9-.6-1.1-.3-.3-1-.6-1.8-.8zm6.6 4.4h-1.2v-7.4h1.2V33zm-1.3-9.4c0-.2 0-.3.2-.5l.5-.2c.3 0 .5 0 .6.2l.2.5c0 .2 0 .4-.2.6l-.6.2-.5-.2a.7.7 0 01-.2-.6zm3 5.6c0-1 .3-2 .9-2.7.5-.7 1.2-1 2-1 1 0 1.6.3 2.1.9v-3.9h1.3V33h-1.2v-.8c-.5.6-1.2 1-2.1 1-.9 0-1.6-.4-2.1-1.1-.6-.7-.8-1.6-.8-2.8zm1.3.2c0 .8.2 1.5.6 2 .3.4.8.7 1.4.7.8 0 1.4-.4 1.7-1.1v-3.4c-.3-.7-1-1-1.7-1-.6 0-1.1.2-1.4.7-.4.4-.6 1.1-.6 2zm10 3.7c-1 0-1.8-.3-2.4-1-.6-.6-1-1.5-1-2.6v-.2c0-.8.2-1.4.5-2a3 3 0 012.8-1.8c1 0 1.7.3 2.2 1 .6.6.8 1.5.8 2.6v.6h-5c0 .7.3 1.3.7 1.7.4.5.9.7 1.5.7.5 0 .8 0 1.1-.3l.9-.7.7.6c-.6 1-1.5 1.4-2.8 1.4zm-.1-6.6c-.5 0-1 .2-1.3.6-.3.3-.6.9-.6 1.5h3.7c0-.7-.2-1.2-.6-1.6-.3-.3-.7-.5-1.2-.5zm6.6 3l-.8.9V33H150V22.5h1.3v6.4l.6-.9 2.4-2.4h1.5l-2.9 3 3.2 4.4h-1.5l-2.5-3.4zm9.6 3.5l-.2-.8c-.6.6-1.3 1-2.1 1s-1.3-.3-1.8-.7a2 2 0 01-.7-1.6c0-.7.3-1.3.9-1.7.5-.5 1.4-.7 2.4-.7h1.3V28c0-.4-.2-.8-.4-1-.3-.3-.7-.4-1.2-.4s-.8.1-1.1.3c-.3.3-.5.5-.5.9H157c0-.4.2-.8.4-1.1.3-.4.6-.6 1-.8.5-.2 1-.3 1.6-.3a3 3 0 012 .6c.5.4.7 1 .7 1.8v3.4c0 .6.1 1.2.3 1.6v.1h-1.3zm-2.1-1c.4 0 .7 0 1-.3.4-.2.7-.4.9-.8v-1.5h-1c-1.6 0-2.4.5-2.4 1.4 0 .4.2.7.4.9.3.2.6.3 1 .3zm8.7-5.3h-.6c-.9 0-1.4.3-1.7 1V33h-1.3v-7.4h1.2v.9c.5-.7 1-1 1.8-1h.6v1.2zm3.2-2.9v1.8h1.4v1h-1.4v4.6c0 .3 0 .5.2.6.1.2.3.3.6.3l.6-.1v1l-1 .1c-.5 0-1-.1-1.2-.5-.3-.3-.5-.8-.5-1.4v-4.6H169v-1h1.3v-1.8h1.3zM122 34.4h51.4v.7H122v-.7z"/></svg>