<svg xmlns="http://www.w3.org/2000/svg" fill="none" viewBox="0 0 296 56"><path fill="#fff" d="M0 0h296v56H0z"/><path fill="#2D4D9F" d="M38.8 28.4h-4.3v3.5h5V33h-6.3V23h6.2v1.1h-5v3.2h4.4v1.1zm3.3-2.8v1c.6-.8 1.4-1.1 2.3-1.1 1.5 0 2.3.8 2.3 2.6V33h-1.2v-4.9c0-.5-.2-1-.4-1.2-.2-.2-.6-.4-1.1-.4-.4 0-.8.1-1.1.4l-.7.8V33h-1.3v-7.4h1.2zM53.5 33h-1.3V22.5h1.3V33zm5 .1c-1 0-1.7-.3-2.4-1-.6-.6-1-1.5-1-2.6v-.2c0-.8.2-1.4.5-2 .3-.6.7-1 1.2-1.3a3 3 0 011.6-.5c1 0 1.7.3 2.3 1 .5.6.8 1.5.8 2.6v.6h-5c0 .7.2 1.3.6 1.7.4.5 1 .7 1.6.7.4 0 .8 0 1-.3.4-.2.7-.4.9-.7l.8.6c-.6 1-1.6 1.4-2.8 1.4zm0-6.6c-.6 0-1 .2-1.4.6-.3.3-.5.9-.6 1.5h3.7c0-.7-.2-1.2-.5-1.6-.3-.3-.7-.5-1.3-.5zm5.6-.9v1c.6-.8 1.4-1.1 2.3-1.1 1.6 0 2.3.8 2.4 2.6V33h-1.3v-4.9c0-.5-.1-1-.4-1.2-.2-.2-.6-.4-1-.4-.5 0-.9.1-1.2.4l-.7.8V33h-1.3v-7.4h1.2zm8.6 4l-.8.8V33h-1.2V22.5h1.2v6.4l.7-.9 2.3-2.4h1.6l-3 3 3.3 4.4h-1.5l-2.6-3.4zm8 3.5c-1 0-1.8-.3-2.5-1-.6-.6-.9-1.5-.9-2.6v-.2c0-.8.1-1.4.4-2 .3-.6.7-1 1.2-1.3a3 3 0 011.6-.5c1 0 1.7.3 2.3 1 .5.6.8 1.5.8 2.6v.6h-5c0 .7.2 1.3.6 1.7.4.5 1 .7 1.6.7.4 0 .8 0 1.1-.3l.8-.7.8.6c-.6 1-1.6 1.4-2.8 1.4zm-.2-6.6c-.5 0-.9.2-1.3.6-.3.3-.5.9-.6 1.5h3.7c0-.7-.2-1.2-.5-1.6-.3-.3-.7-.5-1.3-.5zM32 34.4h52v.7H32v-.7z"/><rect width="106" height="40" x="158" y="8" fill="#2D4D9F" rx="20"/><path fill="#fff" d="M188.8 28.6h-4v3h4.7V33H183V23h6.5v1.4h-4.8v2.8h4.1v1.4zm3.5-3v.9c.6-.7 1.3-1 2.2-1 1.6 0 2.3.8 2.4 2.6V33h-1.7v-4.8c0-.5-.1-.8-.3-1-.2-.3-.5-.4-1-.4-.7 0-1.2.3-1.5 1V33h-1.7v-7.4h1.6zm12.1 4.2l-.7.8V33h-1.6V22.5h1.6v6l.5-.6 2-2.3h2l-2.7 3 3 4.4h-1.9l-2.2-3.2zm6.5-4.2v.9c.6-.7 1.3-1 2.2-1 1.5 0 2.3.8 2.4 2.6V33h-1.7v-4.8c0-.5-.1-.8-.3-1-.2-.3-.5-.4-1-.4-.7 0-1.2.3-1.5 1V33h-1.7v-7.4h1.6zm10.7 7.4l-.2-.7c-.5.6-1.2.8-2 .8-.7 0-1.3-.2-1.8-.6a2 2 0 01-.7-1.6c0-.8.3-1.4.9-1.8.6-.4 1.4-.6 2.5-.6h1V28c0-.4 0-.7-.3-1-.2-.2-.5-.3-1-.3-.3 0-.7.1-.9.3-.2.2-.4.4-.4.7h-1.6c0-.4.1-.7.4-1.1.2-.4.6-.6 1-.8.5-.2 1-.3 1.6-.3a3 3 0 012 .6c.6.5.9 1 .9 1.9v3.3c0 .7 0 1.2.3 1.6v.1h-1.7zm-1.9-1.2c.4 0 .7 0 1-.2.3-.2.5-.4.6-.7v-1.4h-.9c-.6 0-1 .1-1.4.3a1 1 0 00-.4 1c0 .3 0 .5.3.7.2.2.5.3.8.3zm11.5-2.4c0 1.1-.3 2-.8 2.7-.5.7-1.2 1-2 1-.9 0-1.5-.2-2-.8v3.5h-1.7V25.6h1.6v.8c.5-.6 1.2-1 2-1 1 0 1.6.4 2.1 1 .5.7.8 1.7.8 2.9zm-1.6-.2a3 3 0 00-.5-1.7c-.3-.5-.7-.7-1.3-.7-.6 0-1.1.3-1.4.9v3.2c.3.6.8 1 1.5 1 .5 0 .9-.3 1.2-.7.3-.5.5-1.1.5-2zm9.5.2c0 1.1-.3 2-.8 2.7-.5.7-1.2 1-2 1-.9 0-1.5-.2-2-.8v3.5h-1.7V25.6h1.5l.1.8c.5-.6 1.2-1 2-1 .9 0 1.6.4 2.1 1 .5.7.8 1.7.8 2.9zm-1.7-.2a3 3 0 00-.4-1.7c-.3-.5-.7-.7-1.3-.7-.6 0-1.1.3-1.4.9v3.2c.3.6.8 1 1.5 1 .5 0 .9-.3 1.2-.7.3-.5.4-1.1.4-2z"/></svg>