<svg xmlns="http://www.w3.org/2000/svg" fill="none" viewBox="0 0 360 288"><path fill="#fff" d="M0 0h360v288H0z"/><path fill="#F2F3F5" d="M16 120h328v152H16z"/><path fill="#212121" d="M58.3 22.6h-4V34h-1.8V22.6h-4v-1.4h9.8v1.4zM61.7 34h-1.6v-9.5h1.6V34zM60 22c0-.3 0-.5.2-.7.2-.2.4-.3.7-.3.4 0 .6.1.8.3l.2.7c0 .2 0 .5-.2.6-.2.2-.4.3-.8.3-.3 0-.5-.1-.7-.3a1 1 0 01-.2-.6zM66 34h-1.6V20.5H66V34zm2.2-4.8c0-1.5.4-2.7 1-3.6.8-.8 1.7-1.3 2.8-1.3 1.2 0 2 .4 2.7 1.2v-1h1.6v9.3c0 1.2-.4 2.2-1.1 2.9a4 4 0 01-3 1c-.6 0-1.3-.1-2-.4-.6-.3-1.1-.7-1.5-1.2l.9-1c.7.9 1.5 1.3 2.5 1.3.8 0 1.4-.2 1.9-.7.4-.4.6-1 .6-1.8V33c-.6.7-1.5 1-2.6 1s-2-.4-2.7-1.3c-.7-.9-1-2-1-3.6zm1.7.2c0 1 .2 1.9.6 2.5.5.6 1 .9 1.9.9 1 0 1.8-.5 2.2-1.4v-4.3c-.5-1-1.2-1.4-2.2-1.4-.8 0-1.4.3-1.9 1-.4.5-.6 1.4-.6 2.7zm10.5-5v10.7c0 1.8-.8 2.7-2.5 2.7a3 3 0 01-1-.1v-1.3h.8c.3 0 .6 0 .8-.2.2-.2.3-.6.3-1V24.4h1.6zM78.7 22c0-.3.1-.5.3-.7.1-.2.4-.3.7-.3.3 0 .5.1.7.3.2.2.2.4.2.7 0 .2 0 .5-.2.6-.2.2-.4.3-.7.3-.3 0-.6-.1-.7-.3a1 1 0 01-.3-.6zm8.4 12.2c-1.3 0-2.4-.4-3.2-1.3-.8-.8-1.2-2-1.2-3.4v-.3c0-1 .2-1.8.6-2.5.3-.8.8-1.3 1.5-1.8.6-.4 1.3-.6 2-.6 1.3 0 2.3.4 3 1.2.7.9 1 2 1 3.5v.7h-6.4c0 1 .2 1.7.8 2.3.5.6 1.2.8 2 .8.5 0 1 0 1.4-.3.4-.2.8-.5 1-1l1 .8a4 4 0 01-3.5 1.9zm-.2-8.5c-.7 0-1.2.2-1.7.7-.4.4-.7 1.1-.8 2h4.8v-.1a3 3 0 00-.7-2 2 2 0 00-1.6-.6zm7.3-1.2v1.2c.8-1 1.8-1.4 3-1.4 2 0 3 1.1 3 3.4V34h-1.7v-6.3c0-.7-.1-1.2-.4-1.5-.3-.3-.8-.5-1.5-.5-.5 0-1 .1-1.4.4-.4.3-.7.7-.9 1.1V34h-1.6v-9.5h1.5zm8 4.7c0-1.5.4-2.7 1-3.6.7-.8 1.7-1.3 2.8-1.3 1.1 0 2 .4 2.7 1.2v-1h1.6v9.3c0 1.2-.4 2.2-1.1 2.9a4 4 0 01-3 1c-.7 0-1.3-.1-2-.4-.6-.3-1.1-.7-1.5-1.2l.9-1c.7.9 1.5 1.3 2.5 1.3.8 0 1.4-.2 1.9-.7.4-.4.6-1 .6-1.8V33c-.6.7-1.5 1-2.6 1s-2-.4-2.7-1.3c-.7-.9-1-2-1-3.6zm1.7.2c0 1 .2 1.9.6 2.5.5.6 1 .9 1.9.9 1 0 1.7-.5 2.2-1.4v-4.3c-.5-1-1.2-1.4-2.2-1.4-.8 0-1.4.3-1.9 1-.4.5-.6 1.4-.6 2.7zm12.8 4.8c-1.3 0-2.4-.4-3.2-1.3-.8-.8-1.2-2-1.2-3.4v-.3c0-1 .2-1.8.5-2.5.4-.8 1-1.3 1.6-1.8.6-.4 1.3-.6 2-.6 1.3 0 2.3.4 3 1.2.6.9 1 2 1 3.5v.7h-6.5c0 1 .3 1.7.9 2.3.5.6 1.1.8 2 .8.5 0 1 0 1.4-.3.4-.2.8-.5 1-1l1 .8a4 4 0 01-3.5 1.9zm-.2-8.5c-.7 0-1.2.2-1.7.7-.4.4-.7 1.1-.8 2h4.8v-.1a3 3 0 00-.7-2 2 2 0 00-1.6-.6zM124 34h-1.6V20.5h1.6V34zm4.4 0h-1.6v-9.5h1.6V34zm-1.7-12c0-.3 0-.5.2-.7.2-.2.4-.3.7-.3.3 0 .6.1.7.3.2.2.3.4.3.7 0 .2-.1.5-.3.6-.1.2-.4.3-.7.3-.3 0-.5-.1-.7-.3a1 1 0 01-.2-.6zm4 7.2c0-1.5.3-2.7 1-3.6.6-.8 1.6-1.3 2.7-1.3s2 .4 2.7 1.2v-1h1.6v9.3c0 1.2-.4 2.2-1.1 2.9a4 4 0 01-3 1c-.7 0-1.3-.1-2-.4-.6-.3-1.1-.7-1.5-1.2l.9-1c.7.9 1.5 1.3 2.5 1.3.8 0 1.4-.2 1.9-.7.4-.4.6-1 .6-1.8V33c-.6.7-1.5 1-2.6 1s-2-.4-2.7-1.3c-.7-.9-1-2-1-3.6zm1.6.2c0 1 .2 1.9.6 2.5.5.6 1 .9 1.9.9 1 0 1.8-.5 2.2-1.4v-4.3c-.5-1-1.2-1.4-2.2-1.4-.8 0-1.4.3-1.9 1-.4.5-.6 1.4-.6 2.7zm10.5-3.8c.7-.8 1.6-1.3 2.8-1.3 2 0 3 1.1 3 3.4V34H147v-6.3c0-.7-.2-1.2-.5-1.5-.3-.3-.8-.5-1.4-.5-.6 0-1 .1-1.4.4l-1 1.1V34h-1.6V20.5h1.7v5.1zm12.2 8.6c-1.3 0-2.3-.4-3.2-1.3-.8-.8-1.2-2-1.2-3.4v-.3c0-1 .2-1.8.6-2.5.3-.8.8-1.3 1.5-1.8.6-.4 1.3-.6 2-.6 1.3 0 2.3.4 3 1.2.7.9 1 2 1 3.5v.7h-6.4c0 1 .3 1.7.8 2.3.5.6 1.2.8 2 .8.6 0 1 0 1.4-.3.4-.2.8-.5 1-1l1 .8a4 4 0 01-3.5 1.9zm-.2-8.5c-.7 0-1.2.2-1.7.7-.4.4-.7 1.1-.8 2h4.8v-.1a3 3 0 00-.7-2 2 2 0 00-1.6-.6zm8-3.5v2.3h1.8v1.2h-1.8v6c0 .3 0 .6.2.8.2.2.5.3.8.3l.8-.1V34l-1.2.2c-.8 0-1.3-.2-1.7-.7-.3-.4-.5-1-.5-1.9v-5.9h-1.8v-1.2h1.8v-2.3h1.6zM24.6 71.5h-3.4V81h-1.4v-9.5h-3.4v-1.2h8.2v1.2zm4 9.6c-1.1 0-2-.3-2.7-1a4 4 0 01-1-2.8V77c0-.8.1-1.5.4-2 .3-.7.8-1.2 1.3-1.5.5-.4 1.1-.6 1.8-.6 1 0 1.8.4 2.4 1 .5.7.8 1.7.8 3v.5h-5.3c0 .8.2 1.4.6 2 .5.4 1 .6 1.7.6.5 0 .9 0 1.2-.3.4-.1.6-.4.9-.7l.8.6c-.6 1-1.6 1.5-3 1.5zm-.2-7c-.6 0-1 .1-1.4.5-.4.4-.6 1-.7 1.7h4c0-.8-.3-1.3-.6-1.7-.3-.4-.8-.6-1.3-.6zm7 3.2l-.8 1V81h-1.4V69.7h1.4v6.9l.7-1 2.5-2.5h1.6l-3 3.3 3.4 4.6h-1.6l-2.8-3.7zm10 1.6a1 1 0 00-.4-.9l-1.4-.5c-.7-.1-1.3-.3-1.7-.5l-.9-.7c-.2-.3-.3-.7-.3-1 0-.7.3-1.2.9-1.7.5-.4 1.2-.7 2-.7 1 0 1.7.3 2.3.7.5.5.8 1 .8 1.8h-1.4c0-.4-.1-.7-.4-1-.4-.2-.8-.4-1.2-.4-.5 0-1 .1-1.2.4a1 1 0 00-.4.8c0 .3.1.6.4.7.2.2.7.4 1.4.5l1.6.6c.5.2.8.4 1 .7.2.3.3.7.3 1.1a2 2 0 01-.9 1.7c-.5.4-1.3.6-2.2.6a4 4 0 01-1.7-.3c-.5-.2-.8-.5-1.1-1-.3-.3-.4-.8-.4-1.2h1.3c0 .4.2.8.6 1 .3.3.8.4 1.3.4s1 0 1.2-.3c.4-.2.5-.5.5-.8zm5-7.7V73h1.5v1h-1.5v5c0 .3 0 .5.2.7l.6.2.7-.1V81a4 4 0 01-1 .1c-.7 0-1.1-.1-1.4-.5-.3-.4-.5-.9-.5-1.6v-4.9h-1.4v-1H49v-2h1.4zm7.7 7.7a1 1 0 00-.5-.9c-.2-.2-.7-.3-1.4-.5-.7-.1-1.2-.3-1.6-.5l-1-.7-.2-1c0-.7.3-1.2.8-1.7.6-.4 1.3-.7 2.1-.7 1 0 1.6.3 2.2.7.6.5.8 1 .8 1.8H58c0-.4-.2-.7-.5-1-.3-.2-.7-.4-1.2-.4s-.9.1-1.1.4a1 1 0 00-.5.8c0 .3.2.6.4.7.3.2.8.4 1.4.5l1.7.6c.4.2.7.4.9.7.2.3.3.7.3 1.1a2 2 0 01-.8 1.7c-.6.4-1.3.6-2.2.6a4 4 0 01-1.7-.3c-.5-.2-.9-.5-1.2-1-.3-.3-.4-.8-.4-1.2h1.4c0 .4.2.8.5 1 .4.3.8.4 1.4.4.5 0 .9 0 1.2-.3.3-.2.5-.5.5-.8zm5.3-1.6l-.9 1V81h-1.3V69.7h1.3v6.9l.8-1 2.4-2.5h1.7l-3.1 3.3 3.4 4.6h-1.6l-2.7-3.7zM73.7 81l-.2-.8a3 3 0 01-2.3 1c-.8 0-1.4-.3-1.9-.7-.5-.5-.7-1-.7-1.7 0-.8.3-1.5.9-2 .6-.4 1.5-.6 2.6-.6h1.4v-.6c0-.5-.2-.9-.5-1.2-.2-.2-.7-.4-1.2-.4a2 2 0 00-1.2.4c-.4.2-.5.5-.5.9h-1.4c0-.4.2-.8.4-1.2a3.9 3.9 0 012.7-1.2c1 0 1.7.3 2.2.7.5.5.8 1.1.8 1.9v3.6c0 .8.1 1.4.3 1.8v.1h-1.4zm-2.3-1c.4 0 .8-.1 1.2-.4.4-.2.7-.5.9-.8v-1.6h-1.1c-1.7 0-2.5.4-2.5 1.4 0 .4.1.8.4 1 .3.2.7.4 1.1.4zm7 1h-1.3V69.7h1.3V81zm5.5.1c-1.1 0-2-.3-2.6-1a4 4 0 01-1-2.8V77c0-.8 0-1.5.4-2a3.2 3.2 0 013-2c1 0 1.8.3 2.4 1 .6.6.9 1.6.9 2.9v.5h-5.4c0 .8.2 1.4.7 2 .4.4 1 .6 1.6.6.5 0 1 0 1.3-.3.3-.1.6-.4.8-.7l.9.6c-.7 1-1.7 1.5-3 1.5zm-.2-7c-.5 0-1 .1-1.4.5-.3.4-.6 1-.7 1.7h4c0-.8-.2-1.3-.5-1.7-.4-.4-.8-.6-1.4-.6zm8.7.2a4 4 0 00-.7 0c-.9 0-1.5.3-1.8 1V81h-1.4v-8H90v1c.4-.7 1-1 1.9-1h.6v1.3zM95 81h-1.4v-8h1.4v8zm-1.5-10l.2-.6.6-.2c.3 0 .5 0 .6.2.2.2.2.4.2.6 0 .2 0 .4-.2.5-.1.2-.3.2-.6.2-.2 0-.4 0-.6-.2a.8.8 0 01-.2-.5zm5 2v1c.6-.7 1.4-1 2.4-1 1.6 0 2.5.9 2.5 2.8V81h-1.4v-5.2c0-.6 0-1-.3-1.3-.3-.3-.7-.4-1.2-.4a2 2 0 00-1.2.3l-.8 1V81h-1.3v-8h1.3zm6.6 4c0-1.3.3-2.2.9-3 .6-.7 1.3-1 2.3-1 1 0 1.7.3 2.2 1v-1h1.3v7.8c0 1-.3 1.8-.9 2.4-.6.6-1.4 1-2.4 1a4 4 0 01-1.7-.4c-.6-.3-1-.6-1.3-1l.7-.9c.6.8 1.3 1.1 2.2 1.1a2 2 0 001.5-.5c.4-.4.6-1 .6-1.6v-.7c-.6.6-1.3 1-2.3 1-.9 0-1.6-.4-2.2-1.2a5 5 0 01-.9-3zm1.4.1c0 1 .2 1.6.5 2.1.4.5 1 .8 1.6.8a2 2 0 001.9-1.2v-3.6a2 2 0 00-2-1.1c-.6 0-1 .2-1.5.7-.3.6-.5 1.3-.5 2.3zM33.2 153v-10H36c.8 0 1.6.2 2.3.6.6.4 1.1 1 1.5 1.7.4.7.5 1.5.6 2.4v.6c0 1-.2 1.8-.6 2.5-.4.7-.9 1.2-1.5 1.6-.7.4-1.5.6-2.4.6h-2.7zm1.3-8.9v7.8h1.3a3 3 0 002.4-1c.6-.5.9-1.4.9-2.6v-.6a4 4 0 00-.8-2.6c-.6-.6-1.3-1-2.3-1h-1.5zm11.2 2.6h-.6c-.8 0-1.4.3-1.7 1v5.3h-1.3v-7.4h1.3v.9c.4-.7 1-1 1.8-1h.5v1.2zm5.5 6.3l-.2-.8c-.6.6-1.3 1-2.1 1-.7 0-1.3-.3-1.8-.7a2 2 0 01-.7-1.6c0-.7.3-1.3.9-1.7.6-.5 1.4-.7 2.5-.7H51v-.6c0-.4-.1-.8-.4-1-.3-.3-.7-.4-1.2-.4-.4 0-.8.1-1.1.3-.3.3-.5.5-.5.9h-1.2c0-.4 0-.8.3-1.1.3-.4.7-.6 1.1-.8l1.5-.3a3 3 0 012 .6c.5.4.7 1 .7 1.8v3.4c0 .6.1 1.2.3 1.6v.1h-1.3zm-2.1-1c.4 0 .8 0 1.1-.3.4-.2.6-.4.8-.8v-1.5h-1c-1.6 0-2.3.5-2.3 1.4 0 .4.1.7.4.9.2.2.6.3 1 .3zm8.3-2.8c0-1.1.3-2 .8-2.7.5-.7 1.2-1 2.1-1 1 0 1.6.3 2.1 1l.1-.9h1.2v7.2a3 3 0 01-.9 2.3c-.6.5-1.3.8-2.3.8l-1.6-.3c-.5-.3-.9-.6-1.1-1l.6-.7c.6.6 1.2 1 2 1 .6 0 1.1-.2 1.5-.5.3-.4.5-.9.5-1.5v-.6c-.5.5-1.2.8-2 .8-1 0-1.7-.3-2.2-1-.5-.7-.8-1.7-.8-2.9zm1.3.2c0 .8.1 1.5.5 2 .3.4.8.7 1.4.7.8 0 1.4-.4 1.8-1.1v-3.4c-.4-.7-1-1-1.8-1-.6 0-1 .2-1.4.7-.4.4-.5 1.1-.5 2zm8.2 3.6h-1.2v-10.5h1.2V153zm3.4 0h-1.2v-7.4h1.2v7.4zm-1.3-9.4c0-.2 0-.3.2-.5l.5-.2c.3 0 .5 0 .6.2l.2.5c0 .2 0 .4-.2.6l-.6.2-.5-.2a.7.7 0 01-.2-.6zm3 5.6c0-1 .3-2 .9-2.7.5-.7 1.2-1 2-1 1 0 1.6.3 2.1.9v-3.9h1.3V153h-1.2v-.8c-.5.6-1.2 1-2.1 1-.9 0-1.6-.4-2.1-1.1-.6-.7-.8-1.6-.8-2.8zm1.3.2c0 .8.2 1.5.5 2 .4.4.9.7 1.5.7.8 0 1.4-.4 1.7-1.1v-3.4c-.3-.7-1-1-1.7-1-.6 0-1.1.2-1.5.7-.3.4-.5 1.1-.5 2zm10 3.7c-1 0-1.8-.3-2.4-1-.6-.6-1-1.5-1-2.6v-.2c0-.8.2-1.4.5-2a3 3 0 012.8-1.8c1 0 1.7.3 2.2 1 .6.6.8 1.5.8 2.6v.6h-5c0 .7.2 1.3.7 1.7.4.5.9.7 1.5.7.5 0 .8 0 1.1-.3l.9-.7.7.6c-.6 1-1.5 1.4-2.8 1.4zm-.1-6.6c-.5 0-1 .2-1.3.6-.3.3-.6.9-.6 1.5H85c0-.7-.2-1.2-.6-1.6-.3-.3-.7-.5-1.2-.5zm10.8 2.9c0 1.1-.3 2-.8 2.7-.5.7-1.2 1-2.1 1-1 0-1.7-.3-2.2-1v.9h-1.2v-10.5H89v4c.5-.7 1.2-1 2-1 1 0 1.7.3 2.2 1 .5.7.8 1.6.8 2.8zm-1.3-.2c0-.8-.2-1.5-.5-2-.3-.4-.8-.7-1.4-.7-.9 0-1.5.4-1.8 1.2v3.2c.4.8 1 1.2 1.8 1.2.6 0 1-.3 1.4-.7.3-.5.5-1.2.5-2.2zm6.4-2.5h-.6c-.8 0-1.4.3-1.7 1v5.3h-1.2v-7.4h1.2v.9c.4-.7 1-1 1.8-1h.5v1.2zm3.7 4.4l1.8-5.5h1.3l-3 8.5c-.4 1.3-1.1 1.9-2.1 1.9h-.3l-.5-.1v-1h.4c.4 0 .7-.1 1-.3l.6-1 .3-.7-2.7-7.3h1.4l1.8 5.5zm6-7.3v1.8h1.4v1h-1.4v4.6c0 .3 0 .5.2.6 0 .2.3.3.6.3l.6-.1v1l-1 .1c-.5 0-1-.1-1.3-.5-.2-.3-.4-.8-.4-1.4v-4.6h-1.3v-1h1.3v-1.8h1.3zm6 9.3c-1 0-2-.3-2.5-1-.7-.6-1-1.5-1-2.6v-.2c0-.8.2-1.4.4-2 .3-.6.7-1 1.2-1.3a3 3 0 011.7-.5c1 0 1.7.3 2.2 1 .5.6.8 1.5.8 2.6v.6h-5c0 .7.2 1.3.6 1.7.4.5 1 .7 1.6.7.4 0 .8 0 1.1-.3l.8-.7.8.6c-.6 1-1.6 1.4-2.8 1.4zm-.2-6.6c-.6 0-1 .2-1.3.6-.4.3-.6.9-.7 1.5h3.7c0-.7-.2-1.2-.5-1.6-.3-.3-.7-.5-1.2-.5zm8 .2h-.6c-.8 0-1.4.3-1.7 1v5.3h-1.2v-7.4h1.2v.9c.4-.7 1-1 1.8-1h.5v1.2zm4.1 6.4c-1 0-1.8-.3-2.4-1-.6-.6-1-1.5-1-2.6v-.2c0-.8.2-1.4.5-2 .2-.6.6-1 1.1-1.3a3 3 0 011.7-.5c1 0 1.7.3 2.2 1 .6.6.8 1.5.8 2.6v.6h-5c0 .7.2 1.3.6 1.7.5.5 1 .7 1.6.7.5 0 .8 0 1.1-.3l.9-.7.7.6c-.6 1-1.5 1.4-2.8 1.4zm-.1-6.6c-.5 0-1 .2-1.3.6-.3.3-.6.9-.6 1.5h3.7c0-.7-.3-1.2-.6-1.6-.3-.3-.7-.5-1.2-.5zm5.7-.9v1c.6-.8 1.3-1.1 2.2-1.1 1.6 0 2.4.8 2.4 2.6v4.9h-1.3v-4.9c0-.5 0-1-.3-1.2-.3-.2-.6-.4-1.1-.4-.4 0-.8.1-1.1.4-.3.2-.6.5-.7.8v5.3H131v-7.4h1.2zm11.7-1.8v1.8h1.4v1H144v4.6c0 .3 0 .5.2.6.1.2.3.3.6.3l.6-.1v1l-1 .1c-.5 0-1-.1-1.2-.5-.3-.3-.5-.8-.5-1.4v-4.6h-1.3v-1h1.3v-1.8h1.3zm4.2 9.2H147v-7.4h1.2v7.4zm-1.3-9.4c0-.2 0-.3.2-.5l.5-.2c.3 0 .5 0 .6.2l.2.5c0 .2 0 .4-.2.6l-.6.2-.5-.2a.7.7 0 01-.2-.6zm4.7 9.4h-1.2v-10.5h1.2V153zm5.2-3.8c0-1 .3-2 .9-2.7.5-.7 1.2-1 2-1 1 0 1.6.3 2.1.9v-3.9h1.3V153h-1.2v-.8c-.5.6-1.2 1-2.2 1-.8 0-1.5-.4-2-1.1-.6-.7-.9-1.6-.9-2.8zm1.3.2c0 .8.2 1.5.5 2 .4.4.9.7 1.5.7.8 0 1.4-.4 1.7-1.1v-3.4c-.4-.7-1-1-1.7-1-.6 0-1.1.2-1.5.7-.3.4-.5 1.1-.5 2zm11.5 2.9c-.5.5-1.2.8-2.1.8-.8 0-1.4-.2-1.9-.6-.4-.5-.6-1.2-.6-2v-4.9h1.3v4.8c0 1.1.4 1.7 1.4 1.7 1 0 1.6-.4 1.9-1.1v-5.4h1.3v7.4h-1.3v-.7zm8.7-2.7l-.8.8v2.6h-1.2v-10.5h1.2v6.4l.7-.9 2.3-2.4h1.5l-2.8 3 3.2 4.4h-1.5l-2.6-3.4zm9.6 3.4l-.2-.8c-.6.6-1.3 1-2 1-.8 0-1.4-.3-1.9-.7a2 2 0 01-.7-1.6c0-.7.3-1.3 1-1.7.5-.5 1.3-.7 2.4-.7h1.2v-.6c0-.4-.1-.8-.4-1-.2-.3-.6-.4-1.2-.4-.4 0-.8.1-1 .3-.4.3-.5.5-.5.9h-1.3c0-.4.1-.8.4-1.1.2-.4.6-.6 1-.8l1.5-.3a3 3 0 012 .6c.5.4.8 1 .8 1.8v3.4c0 .6 0 1.2.2 1.6v.1H188zm-2-1c.3 0 .7 0 1-.3.4-.2.7-.4.8-.8v-1.5h-1c-1.5 0-2.3.5-2.3 1.4 0 .4.1.7.4.9.3.2.6.3 1 .3zm6.3-6.4v1c.6-.8 1.3-1.1 2.2-1.1 1.6 0 2.4.8 2.4 2.6v4.9h-1.3v-4.9c0-.5-.1-1-.4-1.2-.2-.2-.6-.4-1-.4-.5 0-.8.1-1.1.4-.4.2-.6.5-.8.8v5.3H191v-7.4h1.2zm11.3 7.4h-1.2v-10.5h1.2V153zm5.1.1c-1 0-1.8-.3-2.4-1-.6-.6-1-1.5-1-2.6v-.2c0-.8.2-1.4.5-2 .2-.6.6-1 1.1-1.3a3 3 0 011.7-.5c1 0 1.7.3 2.2 1 .6.6.8 1.5.8 2.6v.6h-5c0 .7.2 1.3.6 1.7.5.5 1 .7 1.6.7.4 0 .8 0 1.1-.3l.8-.7.8.6c-.6 1-1.5 1.4-2.8 1.4zm-.1-6.6c-.5 0-1 .2-1.3.6-.4.3-.6.9-.7 1.5h3.8c0-.7-.3-1.2-.6-1.6-.3-.3-.7-.5-1.2-.5zm8.8 4.5a1 1 0 00-.4-.8l-1.3-.4-1.6-.5-.8-.7c-.2-.3-.3-.6-.3-1 0-.6.3-1 .8-1.5a3 3 0 012-.6 3 3 0 012 .6c.5.4.8 1 .8 1.7h-1.3c0-.4-.1-.7-.4-1-.3-.2-.7-.3-1.1-.3-.5 0-.9.1-1.1.3a1 1 0 00-.4.8c0 .3.1.5.4.7.2.1.6.3 1.3.4l1.5.5.9.7c.2.3.3.7.3 1 0 .7-.3 1.2-.8 1.6-.6.4-1.2.6-2 .6-.7 0-1.2 0-1.7-.3-.4-.2-.8-.5-1-.9-.3-.3-.4-.7-.4-1.2h1.2c0 .4.2.8.6 1 .3.3.7.4 1.2.4a2 2 0 001.2-.3c.2-.2.4-.4.4-.8zm6 2.1c-1 0-1.8-.3-2.5-1-.6-.6-1-1.5-1-2.6v-.2c0-.8.2-1.4.5-2 .3-.6.7-1 1.2-1.3a3 3 0 011.6-.5c1 0 1.7.3 2.3 1 .5.6.8 1.5.8 2.6v.6h-5c0 .7.2 1.3.6 1.7.4.5 1 .7 1.5.7s.9 0 1.2-.3l.8-.7.8.6c-.7 1-1.6 1.4-2.8 1.4zm-.2-6.6c-.5 0-1 .2-1.3.6-.3.3-.5.9-.6 1.5h3.7c0-.7-.2-1.2-.5-1.6-.3-.3-.8-.5-1.3-.5zm7.7 2.7c0-1 .3-2 .8-2.7.5-.7 1.2-1 2.1-1 .9 0 1.6.3 2 .9v-3.9h1.3V153H236v-.8c-.6.6-1.3 1-2.2 1-.9 0-1.6-.4-2.1-1.1-.5-.7-.8-1.6-.8-2.8zm1.3.2c0 .8.1 1.5.5 2 .3.4.8.7 1.4.7.8 0 1.4-.4 1.8-1.1v-3.4c-.4-.7-1-1-1.8-1-.6 0-1 .2-1.4.7-.4.4-.5 1.1-.5 2zm10 3.7c-1 0-1.8-.3-2.5-1-.6-.6-1-1.5-1-2.6v-.2c0-.8.2-1.4.5-2 .3-.6.7-1 1.2-1.3a3 3 0 011.6-.5c1 0 1.7.3 2.3 1 .5.6.8 1.5.8 2.6v.6h-5c0 .7.2 1.3.6 1.7.4.5 1 .7 1.5.7s.9 0 1.2-.3l.8-.7.8.6c-.7 1-1.6 1.4-2.8 1.4zm-.2-6.6c-.5 0-1 .2-1.3.6-.3.3-.5.9-.6 1.5h3.7c0-.7-.2-1.2-.5-1.6-.3-.3-.8-.5-1.3-.5zm6.2-2.7v1.8h1.4v1h-1.4v4.6l.2.6c.2.2.4.3.7.3l.6-.1v1l-1 .1c-.6 0-1-.1-1.3-.5-.3-.3-.4-.8-.4-1.4v-4.6h-1.4v-1h1.4v-1.8h1.2zm4.6 0v1.8h1.4v1h-1.4v4.6c0 .3 0 .5.2.6.1.2.3.3.6.3l.6-.1v1l-1 .1c-.5 0-1-.1-1.2-.5-.3-.3-.4-.8-.4-1.4v-4.6H250v-1h1.4v-1.8h1.2zm6 9.3c-1 0-1.9-.3-2.5-1-.6-.6-1-1.5-1-2.6v-.2c0-.8.2-1.4.5-2 .3-.6.7-1 1.2-1.3a3 3 0 011.6-.5c1 0 1.7.3 2.2 1 .6.6.8 1.5.8 2.6v.6h-5c0 .7.3 1.3.7 1.7.4.5.9.7 1.5.7.5 0 .9 0 1.2-.3l.8-.7.7.6c-.6 1-1.5 1.4-2.7 1.4zm-.2-6.6c-.5 0-1 .2-1.3.6-.3.3-.5.9-.6 1.5h3.7c0-.7-.2-1.2-.5-1.6-.4-.3-.8-.5-1.3-.5zm12.6 5.8c-.5.5-1.3.8-2.2.8-.8 0-1.4-.2-1.8-.6-.4-.5-.6-1.2-.6-2v-4.9h1.2v4.8c0 1.1.5 1.7 1.4 1.7 1 0 1.6-.4 2-1.1v-5.4h1.2v7.4H271v-.7zm4.8-8.5v1.8h1.4v1H276v4.6c0 .3 0 .5.2.6.1.2.3.3.6.3l.6-.1v1l-1 .1c-.5 0-1-.1-1.2-.5-.3-.3-.4-.8-.4-1.4v-4.6h-1.4v-1h1.4v-1.8h1.2zm6 9.3c-1 0-1.9-.3-2.5-1-.6-.6-1-1.5-1-2.6v-.2c0-.8.2-1.4.5-2 .3-.6.7-1 1.2-1.3a3 3 0 011.6-.5c1 0 1.7.3 2.2 1 .6.6.8 1.5.8 2.6v.6h-5c0 .7.3 1.3.7 1.7.4.5.9.7 1.5.7.5 0 .9 0 1.2-.3l.8-.7.7.6c-.6 1-1.5 1.4-2.7 1.4zm-.2-6.6c-.5 0-1 .2-1.3.6-.3.3-.5.9-.6 1.5h3.7c0-.7-.2-1.2-.5-1.6-.3-.3-.8-.5-1.3-.5zm5.7-.9v1c.6-.8 1.4-1.1 2.3-1.1 1.5 0 2.3.8 2.3 2.6v4.9h-1.2v-4.9c0-.5-.2-1-.4-1.2-.2-.2-.6-.4-1.1-.4-.4 0-.8.1-1.1.4l-.7.8v5.3h-1.3v-7.4h1.2zM39.2 173.4c0 1.1-.3 2-.8 2.7-.5.7-1.2 1-2 1-1 0-1.7-.2-2.2-.8v3.5H33v-10.2H34v.8c.6-.6 1.3-1 2.2-1 1 0 1.6.4 2.1 1 .5.7.8 1.7.8 2.9zm-1.3-.2c0-.8-.1-1.5-.5-2-.3-.4-.8-.7-1.5-.7s-1.3.4-1.7 1v3.6c.4.7 1 1 1.8 1 .6 0 1-.2 1.4-.7.4-.5.5-1.2.5-2.2zm6.5-2.5h-.6c-.9 0-1.4.3-1.7 1v5.3h-1.3v-7.4H42v.9c.5-.7 1-1 1.8-1h.6v1.2zm.7 2.5c0-.7.1-1.3.4-2 .3-.5.7-1 1.2-1.3.5-.3 1.1-.4 1.7-.4 1 0 1.9.3 2.5 1a4 4 0 011 2.8c0 .8-.2 1.5-.5 2a3.1 3.1 0 01-3 1.8c-1 0-1.8-.3-2.4-1a4 4 0 01-1-2.8zm1.3.2c0 .8.2 1.5.5 2 .4.5 1 .7 1.6.7.6 0 1.1-.2 1.5-.7.4-.6.6-1.3.6-2.2 0-.8-.2-1.4-.6-2-.4-.4-1-.7-1.6-.7-.6 0-1 .3-1.5.8-.3.4-.5 1.2-.5 2zm13.3 0c0 1.1-.3 2-.8 2.7-.5.7-1.2 1-2.1 1-1 0-1.7-.3-2.2-1v.9h-1.2v-10.5h1.3v4c.5-.7 1.2-1 2-1 1 0 1.7.3 2.2 1 .5.7.8 1.6.8 2.8zm-1.3-.2c0-.8-.2-1.5-.5-2-.3-.4-.8-.7-1.4-.7-.9 0-1.5.4-1.8 1.2v3.2c.4.8 1 1.2 1.8 1.2.6 0 1-.3 1.4-.7.3-.5.5-1.2.5-2.2zm4.2 3.8h-1.2v-10.5h1.2V177zm5.1.1c-1 0-1.8-.3-2.4-1-.6-.6-1-1.5-1-2.6v-.2c0-.8.2-1.4.5-2a3 3 0 012.8-1.8c1 0 1.7.3 2.2 1 .6.6.8 1.5.8 2.6v.6h-5c0 .7.2 1.3.7 1.7.4.5.9.7 1.5.7.5 0 .8 0 1.1-.3l.9-.7.7.6c-.6 1-1.5 1.4-2.8 1.4zm-.1-6.6c-.5 0-1 .2-1.3.6-.3.3-.6.9-.6 1.5h3.7c0-.7-.2-1.2-.6-1.6-.3-.3-.7-.5-1.2-.5zm5.7-.9v.8c.6-.6 1.3-1 2.2-1 1 0 1.8.5 2.1 1.3l1-1 1.4-.2c1.6 0 2.4.8 2.5 2.5v5h-1.3v-4.9c0-.5-.1-.9-.4-1.2-.2-.2-.6-.4-1.2-.4-.5 0-.8.2-1.1.5-.4.2-.5.6-.6 1v5h-1.3v-4.8c0-1.1-.5-1.7-1.5-1.7-.9 0-1.4.4-1.7 1.1v5.4H72v-7.4h1.2zm14.1 7.5c-1 0-1.8-.3-2.4-1-.6-.6-1-1.5-1-2.6v-.2c0-.8.2-1.4.5-2a3 3 0 012.8-1.8c1 0 1.7.3 2.2 1 .6.6.8 1.5.8 2.6v.6h-5c0 .7.3 1.3.7 1.7.4.5.9.7 1.5.7.5 0 .8 0 1.1-.3l.9-.7.7.6c-.6 1-1.5 1.4-2.8 1.4zm-.1-6.6c-.5 0-1 .2-1.3.6-.3.3-.6.9-.6 1.5H89c0-.7-.2-1.2-.6-1.6-.3-.3-.7-.5-1.2-.5zm8 .2h-.5c-.9 0-1.4.3-1.7 1v5.3h-1.3v-7.4H93v.9c.5-.7 1-1 1.8-1h.6v1.2zm.4 5.6c0-.2 0-.4.2-.5.1-.2.3-.2.6-.2s.5 0 .6.2l.2.5c0 .2 0 .4-.2.6l-.6.2c-.3 0-.5 0-.6-.2a.8.8 0 01-.2-.6zm15 .7h-1.3l-5-7.7v7.7H103v-10h1.3l5 7.8V167h1.3v10zm6.7 0l-.2-.8c-.6.6-1.3 1-2 1-.8 0-1.4-.3-1.9-.7a2 2 0 01-.7-1.6c0-.7.3-1.3 1-1.7.5-.5 1.3-.7 2.4-.7h1.2v-.6c0-.4-.1-.8-.4-1-.3-.3-.6-.4-1.2-.4-.4 0-.8.1-1 .3-.4.3-.5.5-.5.9h-1.3c0-.4.1-.8.4-1.1.2-.4.6-.6 1-.8l1.5-.3a3 3 0 012 .6c.5.4.8 1 .8 1.8v3.4c0 .6 0 1.2.2 1.6v.1h-1.3zm-2-1c.3 0 .7 0 1-.3.4-.2.6-.4.8-.8v-1.5h-1c-1.5 0-2.3.5-2.3 1.4 0 .4.1.7.4.9.3.2.6.3 1 .3zm2-8.7c0 .4-.2.7-.5 1-.3.3-.6.4-1 .4-.5 0-.8-.1-1.1-.4-.3-.3-.4-.6-.4-1s.1-.7.4-1c.3-.3.6-.4 1-.4.5 0 .8.1 1.1.4.3.3.4.6.4 1zm-2.3 0c0 .2 0 .4.2.6l.6.2c.2 0 .4 0 .5-.2.2-.2.2-.4.2-.6 0-.2 0-.4-.2-.6a.7.7 0 00-.5-.2c-.3 0-.5 0-.6.2-.2.2-.2.4-.2.6zm9 3.4h-.7c-.8 0-1.4.3-1.7 1v5.3h-1.2v-7.4h1.2v.9c.4-.7 1-1 1.8-1h.5v1.2zm4.3 2.5c0-1 .2-2 .8-2.7.5-.7 1.2-1 2-1 1 0 1.6.3 2.1.9v-3.9h1.3V177h-1.2v-.8c-.5.6-1.2 1-2.1 1-.9 0-1.6-.4-2.1-1.1-.6-.7-.8-1.6-.8-2.8zm1.2.2c0 .8.2 1.5.6 2 .3.4.8.7 1.4.7.8 0 1.4-.4 1.7-1.1v-3.4c-.3-.7-1-1-1.7-1-.6 0-1.1.2-1.4.7-.4.4-.6 1.1-.6 2zm11.5 2.9c-.4.5-1.2.8-2.1.8-.8 0-1.4-.2-1.8-.6-.4-.5-.6-1.2-.7-2v-4.9h1.3v4.8c0 1.1.5 1.7 1.4 1.7 1 0 1.6-.4 2-1.1v-5.4h1.2v7.4h-1.2v-.7zm8-5.8c.5-.7 1.2-1 2.1-1 1.6 0 2.4.8 2.4 2.6v4.9h-1.3v-4.9c0-.5-.1-1-.3-1.2-.3-.2-.7-.4-1.2-.4-.4 0-.7.1-1 .4l-.8.8v5.3h-1.2v-10.5h1.2v4zm11 6.5l-.2-.8c-.6.6-1.3 1-2.1 1s-1.4-.3-1.8-.7a2 2 0 01-.7-1.6c0-.7.3-1.3.8-1.7.6-.5 1.5-.7 2.5-.7h1.3v-.6c0-.4-.2-.8-.4-1-.3-.3-.7-.4-1.2-.4s-.8.1-1.1.3c-.4.3-.5.5-.5.9h-1.3c0-.4.2-.8.4-1.1.3-.4.6-.6 1-.8.5-.2 1-.3 1.6-.3a3 3 0 012 .6c.4.4.7 1 .7 1.8v3.4c0 .6.1 1.2.3 1.6v.1H160zm-2.1-1c.3 0 .7 0 1-.3.4-.2.7-.4.9-.8v-1.5h-1c-1.6 0-2.4.5-2.4 1.4 0 .4.2.7.4.9.3.2.6.3 1 .3zm8.7-5.3h-.6c-.9 0-1.4.3-1.7 1v5.3H163v-7.4h1.2v.9c.5-.7 1-1 1.8-1h.6v1.2zm4.3 2.5c0-1 .3-2 .8-2.7.6-.7 1.3-1 2.1-1 .9 0 1.6.3 2 .9v-3.9h1.3V177h-1.1v-.8c-.6.6-1.3 1-2.2 1-.8 0-1.5-.4-2-1.1-.6-.7-.9-1.6-.9-2.8zm1.3.2c0 .8.1 1.5.5 2 .3.4.8.7 1.4.7.8 0 1.4-.4 1.8-1.1v-3.4c-.4-.7-1-1-1.8-1-.6 0-1 .2-1.4.7-.4.4-.5 1.1-.5 2zm6.6-.2c0-.7.1-1.3.4-2 .3-.5.7-1 1.2-1.3.5-.3 1-.4 1.7-.4 1 0 1.9.3 2.5 1a4 4 0 011 2.8c0 .8-.2 1.5-.5 2a3.1 3.1 0 01-3 1.8c-1 0-1.8-.3-2.4-1a4 4 0 01-1-2.8zm1.3.2c0 .8.1 1.5.5 2s1 .7 1.6.7c.6 0 1.1-.2 1.5-.7.4-.6.6-1.3.6-2.2 0-.8-.2-1.4-.6-2-.4-.4-1-.7-1.6-.7-.6 0-1 .3-1.5.8-.4.4-.5 1.2-.5 2zm13.3 0c0 1.1-.3 2-.8 2.7-.5.7-1.2 1-2.1 1-1 0-1.7-.3-2.2-1v.9h-1.2v-10.5h1.3v4c.5-.7 1.2-1 2-1 1 0 1.7.3 2.2 1 .5.7.8 1.6.8 2.8zm-1.3-.2c0-.8-.2-1.5-.5-2-.3-.4-.8-.7-1.4-.7-.9 0-1.5.4-1.8 1.2v3.2c.4.8 1 1.2 1.8 1.2.6 0 1-.3 1.4-.7.3-.5.5-1.2.5-2.2zm9.1.2c0 1.1-.2 2-.8 2.7-.5.7-1.2 1-2 1-1 0-1.7-.3-2.2-1v.9H195v-10.5h1.2v4c.5-.7 1.2-1 2.1-1 1 0 1.6.3 2.2 1 .5.7.7 1.6.7 2.8zm-1.2-.2c0-.8-.2-1.5-.5-2-.4-.4-.8-.7-1.5-.7-.8 0-1.4.4-1.8 1.2v3.2c.4.8 1 1.2 1.8 1.2.6 0 1.1-.3 1.5-.7.3-.5.5-1.2.5-2.2zm5.9 4c-1 0-1.8-.4-2.5-1-.6-.7-.9-1.6-.9-2.7v-.2c0-.8.1-1.4.4-2 .3-.6.7-1 1.2-1.3a3 3 0 011.6-.5c1 0 1.7.3 2.3 1 .5.6.8 1.5.8 2.6v.6h-5c0 .7.2 1.3.6 1.7.4.5 1 .7 1.6.7.4 0 .8 0 1.1-.3l.8-.7.8.6c-.6 1-1.6 1.4-2.8 1.4zm-.2-6.7c-.5 0-.9.2-1.2.6-.4.3-.6.9-.7 1.5h3.7c0-.7-.2-1.2-.5-1.6-.3-.3-.7-.5-1.3-.5zm6 6.5h-1.3v-10.5h1.2V177zm3.7-9.2v1.8h1.4v1h-1.4v4.6c0 .3 0 .5.2.6 0 .2.3.3.6.3l.6-.1v1l-1 .1c-.6 0-1-.1-1.3-.5-.3-.3-.4-.8-.4-1.4v-4.6H213v-1h1.3v-1.8h1.3zm4.6 0v1.8h1.3v1h-1.3v4.6l.1.6c.2.2.4.3.7.3l.6-.1v1l-1 .1c-.6 0-1-.1-1.3-.5-.3-.3-.4-.8-.4-1.4v-4.6h-1.4v-1h1.4v-1.8h1.3zm6.4 3l-.6-.1c-.9 0-1.4.3-1.7 1v5.3h-1.3v-7.4h1.2v.9c.5-.7 1-1 1.8-1h.6v1.2zm3.7 4.3l1.7-5.5h1.4l-3 8.5c-.5 1.3-1.2 1.9-2.2 1.9h-.2l-.5-.1v-1h.3c.5 0 .8-.1 1-.3.3-.2.5-.5.6-1l.3-.7-2.6-7.3h1.4l1.8 5.5zm6.3-1.5l-.8.8v2.6h-1.3v-10.5h1.3v6.4l.7-.9 2.3-2.4h1.5l-2.9 3 3.2 4.4h-1.4l-2.6-3.4zm7 0l-.7.8v2.6h-1.3v-10.5h1.3v6.4l.7-.9 2.3-2.4h1.5l-2.9 3 3.2 4.4h-1.5l-2.5-3.4zm8 3.5c-1 0-1.8-.3-2.4-1-.6-.6-1-1.5-1-2.6v-.2c0-.8.2-1.4.5-2 .2-.6.6-1 1.1-1.3a3 3 0 011.7-.5c1 0 1.7.3 2.2 1 .6.6.8 1.5.8 2.6v.6h-5c0 .7.2 1.3.6 1.7.5.5 1 .7 1.6.7.5 0 .8 0 1.1-.3l.9-.7.7.6c-.6 1-1.5 1.4-2.8 1.4zm-.1-6.6c-.5 0-1 .2-1.3.6-.4.3-.6.9-.6 1.5h3.7c0-.7-.3-1.2-.6-1.6-.3-.3-.7-.5-1.2-.5zm6.2-2.7v1.8h1.4v1h-1.4v4.6c0 .3 0 .5.2.6.1.2.3.3.6.3l.6-.1v1l-1 .1c-.5 0-1-.1-1.2-.5-.3-.3-.5-.8-.5-1.4v-4.6H255v-1h1.3v-1.8h1.3zm12.6 5.6c0 1.1-.3 2-.8 2.7-.5.7-1.2 1-2 1-1 0-1.7-.2-2.2-.8v3.5H264v-10.2h1.2v.8c.6-.6 1.3-1 2.2-1 .9 0 1.6.4 2.1 1 .5.7.8 1.7.8 2.9zm-1.3-.2c0-.8-.2-1.5-.5-2-.4-.4-.8-.7-1.5-.7s-1.3.4-1.7 1v3.6c.4.7 1 1 1.7 1s1.1-.2 1.5-.7c.3-.5.5-1.2.5-2.2zm7.5 3.8l-.2-.8c-.6.6-1.3 1-2.1 1-.7 0-1.3-.3-1.8-.7a2 2 0 01-.7-1.6c0-.7.3-1.3.9-1.7.6-.5 1.4-.7 2.4-.7h1.3v-.6c0-.4-.2-.8-.4-1-.3-.3-.7-.4-1.2-.4-.4 0-.8.1-1.1.3-.3.3-.5.5-.5.9h-1.3c0-.4.2-.8.4-1.1.3-.4.7-.6 1.1-.8.4-.2 1-.3 1.5-.3a3 3 0 012 .6c.5.4.7 1 .7 1.8v3.4c0 .6.1 1.2.3 1.6v.1h-1.3zm-2.1-1c.4 0 .7 0 1.1-.3.4-.2.6-.4.8-.8v-1.5h-1c-1.6 0-2.3.5-2.3 1.4 0 .4 0 .7.4.9.2.2.6.3 1 .3zm2-8.7c0 .4-.2.7-.4 1-.3.3-.7.4-1 .4-.5 0-.9-.1-1.1-.4-.3-.3-.4-.6-.4-1s0-.7.4-1c.2-.3.6-.4 1-.4s.8.1 1 .4c.3.3.5.6.5 1zm-2.3 0l.3.6.5.2c.2 0 .4 0 .6-.2l.2-.6c0-.2 0-.4-.2-.6a.7.7 0 00-.6-.2c-.2 0-.4 0-.5.2l-.3.6zm12 9.8c-1 0-1.9-.3-2.5-1-.6-.6-1-1.5-1-2.6v-.2c0-.8.2-1.4.5-2 .3-.6.7-1 1.2-1.3a3 3 0 011.6-.5c1 0 1.7.3 2.2 1 .6.6.8 1.5.8 2.6v.6h-5c0 .7.3 1.3.7 1.7.4.5.9.7 1.5.7.5 0 .9 0 1.2-.3l.8-.7.8.6c-.7 1-1.6 1.4-2.8 1.4zm-.2-6.6c-.5 0-1 .2-1.3.6-.3.3-.5.9-.6 1.5h3.7c0-.7-.2-1.2-.5-1.6-.3-.3-.8-.5-1.3-.5zm6.2-2.7v1.8h1.4v1H292v4.6c0 .3 0 .5.2.6.1.2.3.3.6.3l.6-.1v1l-1 .1c-.5 0-1-.1-1.2-.5-.3-.3-.4-.8-.4-1.4v-4.6h-1.4v-1h1.4v-1.8h1.2zM37.5 201l-.2-.8c-.5.6-1.2 1-2 1s-1.4-.3-1.9-.7a2 2 0 01-.7-1.6c0-.7.3-1.3 1-1.7.5-.5 1.3-.7 2.4-.7h1.2v-.6c0-.4-.1-.8-.4-1-.2-.3-.6-.4-1.1-.4-.5 0-.9.1-1.2.3-.3.3-.4.5-.4.9h-1.3c0-.4.1-.8.4-1.1.2-.4.6-.6 1-.8l1.5-.3a3 3 0 012 .6c.5.4.8 1 .8 1.8v3.4c0 .6 0 1.2.2 1.6v.1h-1.3zm-2-1c.3 0 .7 0 1-.3.4-.2.7-.4.8-.8v-1.5h-1c-1.5 0-2.3.5-2.3 1.4 0 .4.1.7.4.9.3.2.6.3 1 .3zm7.4-.7l1.8-5.7H46l-2.6 7.4h-1l-2.7-7.4H41l1.9 5.7zm8.7-.3a1 1 0 00-.4-.8l-1.4-.4-1.5-.5c-.4-.2-.7-.5-.8-.7-.2-.3-.3-.6-.3-1 0-.6.2-1 .8-1.5a3 3 0 012-.6 3 3 0 012 .6c.5.4.7 1 .7 1.7h-1.2c0-.4-.2-.7-.5-1-.3-.2-.6-.3-1-.3-.5 0-.9.1-1.2.3a1 1 0 00-.3.8c0 .3 0 .5.3.7l1.3.4 1.6.5c.4.2.6.5.8.7.2.3.3.7.3 1 0 .7-.2 1.2-.8 1.6-.5.4-1.2.6-2 .6-.6 0-1.2 0-1.6-.3-.5-.2-.8-.5-1-.9-.3-.3-.5-.7-.5-1.2h1.3c0 .4.2.8.5 1 .3.3.7.4 1.3.4a2 2 0 001.1-.3c.3-.2.5-.4.5-.8zm4-5.4l.1 1c.6-.8 1.3-1.1 2.2-1.1 1.6 0 2.4.8 2.4 2.6v4.9H59v-4.9c0-.5-.1-1-.4-1.2-.2-.2-.6-.4-1-.4-.5 0-.8.1-1.1.4-.4.2-.6.5-.8.8v5.3h-1.2v-7.4h1.2zm8 7.4h-1.3v-7.4h1.3v7.4zm-1.4-9.4c0-.2 0-.3.2-.5l.5-.2c.3 0 .5 0 .6.2l.2.5c0 .2 0 .4-.2.6l-.6.2-.5-.2a.7.7 0 01-.2-.6zm5.1.2v1.8h1.4v1h-1.4v4.6c0 .3 0 .5.2.6.1.2.3.3.6.3l.6-.1v1l-1 .1c-.5 0-1-.1-1.2-.5-.3-.3-.5-.8-.5-1.4v-4.6h-1.3v-1H66v-1.8h1.3zm4.6 0v1.8h1.4v1h-1.4v4.6c0 .3 0 .5.2.6.1.2.3.3.6.3l.6-.1v1l-1 .1c-.5 0-1-.1-1.2-.5-.3-.3-.5-.8-.5-1.4v-4.6h-1.3v-1h1.3v-1.8H72zm2.8 11.2l-.7-.5c.4-.6.6-1.2.7-1.9v-1.1h1.2v1a3.2 3.2 0 01-1.2 2.5zm12.5-5.6c0 1.1-.2 2-.7 2.7-.6.7-1.3 1-2.1 1-1 0-1.7-.3-2.2-1v.9H81v-10.5h1.2v4c.5-.7 1.3-1 2.1-1 1 0 1.7.3 2.2 1 .5.7.7 1.6.7 2.8zm-1.2-.2c0-.8-.2-1.5-.5-2-.4-.4-.8-.7-1.5-.7-.8 0-1.4.4-1.8 1.2v3.2c.4.8 1 1.2 1.8 1.2.7 0 1.1-.3 1.5-.7.3-.5.5-1.2.5-2.2zm2.5 0c0-.7.1-1.3.4-2a3.2 3.2 0 013-1.7c.5 0 1 0 1.3.3l.5-1h.9l-.7 1.3c.9.7 1.3 1.8 1.3 3.3 0 .7-.1 1.4-.4 2-.3.5-.7 1-1.2 1.3-.5.3-1 .4-1.7.4-.5 0-1 0-1.3-.2l-.5 1h-.9l.7-1.4c-1-.7-1.4-1.7-1.4-3.3zm1.3.2c0 .9.2 1.6.6 2l2.4-4.7a2 2 0 00-1-.2c-.6 0-1 .3-1.5.8-.3.4-.5 1.2-.5 2zm4.2-.2c0-.8-.2-1.5-.6-2L91 200l.9.2c.6 0 1.1-.2 1.5-.7.4-.5.6-1.2.6-2v-.2zm6.3-2.5h-.6c-.8 0-1.4.3-1.7 1v5.3h-1.2v-7.4H98v.9c.4-.7 1-1 1.8-1h.5v1.2zm6.4-2.9v1.8h1.4v1h-1.4v4.6c0 .3 0 .5.2.6.1.2.3.3.6.3l.6-.1v1l-1 .1c-.5 0-1-.1-1.2-.5-.3-.3-.5-.8-.5-1.4v-4.6h-1.3v-1h1.3v-1.8h1.3zm6 9.3c-1 0-1.9-.3-2.5-1-.6-.6-1-1.5-1-2.6v-.2c0-.8.2-1.4.5-2 .2-.6.6-1 1.1-1.3a3 3 0 011.7-.5c1 0 1.7.3 2.2 1 .5.6.8 1.5.8 2.6v.6h-5c0 .7.2 1.3.6 1.7.5.5 1 .7 1.6.7.4 0 .8 0 1.1-.3l.8-.7.8.6c-.6 1-1.5 1.4-2.8 1.4zm-.2-6.6c-.5 0-1 .2-1.3.6-.4.3-.6.9-.7 1.5h3.8c0-.7-.3-1.2-.6-1.6-.3-.3-.7-.5-1.2-.5zm6.5 3l-.7.9v2.6H117v-10.5h1.3v6.4l.6-.9 2.3-2.4h1.6l-2.9 3 3.2 4.4h-1.5l-2.6-3.4zm9.4 1.5a1 1 0 00-.4-.8l-1.3-.4-1.6-.5-.8-.7c-.2-.3-.3-.6-.3-1 0-.6.3-1 .8-1.5a3 3 0 012-.6 3 3 0 012 .6c.5.4.8 1 .8 1.7h-1.3c0-.4-.1-.7-.4-1-.3-.2-.7-.3-1.1-.3-.5 0-.9.1-1.1.3a1 1 0 00-.4.8c0 .3.1.5.4.7.2.1.6.3 1.3.4l1.5.5.9.7c.2.3.3.7.3 1 0 .7-.3 1.2-.8 1.6-.6.4-1.3.6-2.1.6-.6 0-1.1 0-1.6-.3-.4-.2-.8-.5-1-.9-.3-.3-.4-.7-.4-1.2h1.2c0 .4.2.8.5 1 .4.3.8.4 1.3.4a2 2 0 001.1-.3c.3-.2.5-.4.5-.8zm4.6-7.2v1.8h1.4v1H133v4.6c0 .3 0 .5.2.6.1.2.3.3.6.3l.6-.1v1l-1 .1c-.5 0-1-.1-1.2-.5-.3-.3-.4-.8-.4-1.4v-4.6h-1.4v-1h1.3v-1.8h1.3zm6 9.3c-1 0-1.9-.3-2.5-1-.6-.6-1-1.5-1-2.6v-.2c0-.8.2-1.4.5-2 .3-.6.6-1 1.2-1.3a3 3 0 011.6-.5c1 0 1.7.3 2.2 1 .6.6.8 1.5.8 2.6v.6h-5c0 .7.3 1.3.7 1.7.4.5.9.7 1.5.7.5 0 .8 0 1.2-.3l.8-.7.7.6c-.6 1-1.5 1.4-2.8 1.4zm-.2-6.6c-.5 0-1 .2-1.3.6-.3.3-.6.9-.6 1.5h3.7c0-.7-.2-1.2-.6-1.6-.3-.3-.7-.5-1.2-.5zm5.7-.9v1c.6-.8 1.3-1.1 2.3-1.1 1.5 0 2.3.8 2.3 2.6v4.9H148v-4.9c0-.5-.2-1-.4-1.2-.3-.2-.6-.4-1.1-.4-.4 0-.8.1-1.1.4-.3.2-.6.5-.7.8v5.3h-1.3v-7.4h1.2zm12.4 5.7l1.9-5.7h1.3l-2.7 7.4h-1l-2.6-7.4h1.3l1.8 5.7zm12 1.8c-1.1 0-2-.4-2.7-1.2-.3.4-.7.7-1.2 1l-1.7.2c-.8 0-1.4-.2-1.8-.6-.4-.3-.6-.9-.6-1.6 0-.7.2-1.3.7-1.6.5-.4 1.3-.6 2.3-.6h1.5v-.6c0-.5 0-.9-.3-1.2-.3-.3-.6-.4-1.1-.4-.5 0-.9.1-1.2.4-.3.2-.5.5-.5 1l-1.3-.2c0-.7.3-1.2.9-1.6.5-.4 1.2-.6 2-.6.6 0 1 0 1.5.3.4.1.7.4 1 .8a3 3 0 012.3-1.1c1 0 1.7.3 2.2.8.5.6.8 1.5.8 2.5v.8h-5c0 .8.2 1.4.6 1.9.4.4 1 .6 1.7.6.6 0 1.2-.2 1.8-.5l.3-.2.4 1c-.7.5-1.5.7-2.5.7zm-5.4-1c.4 0 .7 0 1-.2l1-.7v-1.6h-1.6a2 2 0 00-1.3.4c-.3.3-.5.6-.5 1 0 .3.2.6.4.8.2.2.6.3 1 .3zm5.2-5.6c-.6 0-1 .2-1.3.6-.4.4-.6.9-.7 1.5h3.7v-.2c0-.6-.1-1-.5-1.4-.3-.3-.7-.5-1.3-.5zm8 .2h-.6c-.9 0-1.4.3-1.7 1v5.3H173v-7.4h1.2v.9c.5-.7 1-1 1.8-1h.6v1.2zm4 6.4c-1 0-1.7-.3-2.4-1-.6-.6-1-1.5-1-2.6v-.2c0-.8.2-1.4.5-2 .3-.6.7-1 1.2-1.3a3 3 0 011.6-.5c1 0 1.7.3 2.3 1 .5.6.8 1.5.8 2.6v.6h-5c0 .7.2 1.3.6 1.7.4.5 1 .7 1.6.7.4 0 .8 0 1-.3.4-.2.7-.4.9-.7l.8.6c-.6 1-1.6 1.4-2.8 1.4zm0-6.6c-.6 0-1 .2-1.4.6-.3.3-.5.9-.6 1.5h3.7c0-.7-.2-1.2-.5-1.6-.3-.3-.7-.5-1.3-.5zm9.1-.9v.8c.6-.6 1.3-1 2.2-1 1 0 1.8.5 2.1 1.3l1-1 1.4-.2c1.6 0 2.4.8 2.5 2.5v5h-1.3v-4.9c0-.5-.1-.9-.4-1.2-.2-.2-.6-.4-1.2-.4-.4 0-.8.2-1.1.5-.3.2-.5.6-.6 1v5h-1.3v-4.8c0-1.1-.5-1.7-1.5-1.7-.9 0-1.4.4-1.7 1.1v5.4h-1.3v-7.4h1.2zm12.5 7.4H201v-7.4h1.3v7.4zm-1.4-9.4c0-.2 0-.3.2-.5l.5-.2c.3 0 .5 0 .6.2l.2.5c0 .2 0 .4-.2.6l-.6.2-.5-.2a.7.7 0 01-.2-.6zm4.6 2v1c.6-.8 1.3-1.1 2.2-1.1 1.6 0 2.4.8 2.4 2.6v4.9h-1.3v-4.9c0-.5 0-1-.3-1.2-.3-.2-.6-.4-1.1-.4-.4 0-.8.1-1.1.4-.3.2-.6.5-.7.8v5.3h-1.3v-7.4h1.2zm10.8 5.4a1 1 0 00-.4-.8l-1.3-.4-1.5-.5-.9-.7-.2-1c0-.6.2-1 .7-1.5a3 3 0 012-.6 3 3 0 012 .6c.6.4.8 1 .8 1.7h-1.3c0-.4-.1-.7-.4-1-.3-.2-.7-.3-1.1-.3-.5 0-.8.1-1 .3a1 1 0 00-.5.8c0 .3.1.5.4.7l1.3.4 1.5.5.9.7c.2.3.3.7.3 1 0 .7-.3 1.2-.8 1.6-.5.4-1.2.6-2 .6-.7 0-1.2 0-1.6-.3-.5-.2-.8-.5-1.1-.9-.3-.3-.4-.7-.4-1.2h1.3c0 .4.2.8.5 1 .3.3.7.4 1.2.4a2 2 0 001.2-.3c.3-.2.4-.4.4-.8zm4.7-7.2v1.8h1.3v1H221v4.6l.1.6c.2.2.4.3.7.3l.6-.1v1l-1 .1c-.6 0-1-.1-1.3-.5-.3-.3-.4-.8-.4-1.4v-4.6h-1.4v-1h1.4v-1.8h1.3zm7.7 9.2h-1.3v-10.5h1.3V201zm3.4 0h-1.3v-7.4h1.3v7.4zm-1.4-9.4c0-.2 0-.3.2-.5l.5-.2c.3 0 .5 0 .6.2l.2.5c0 .2 0 .4-.2.6l-.6.2-.5-.2a.7.7 0 01-.2-.6zm5.5 6l-.8.8v2.6H234v-10.5h1.3v6.4l.6-.9 2.3-2.4h1.6l-2.9 3 3.2 4.4h-1.5l-2.5-3.4zm8 3.5c-1 0-1.9-.3-2.5-1-.6-.6-1-1.5-1-2.6v-.2c0-.8.2-1.4.5-2 .2-.6.6-1 1.1-1.3a3 3 0 011.7-.5c1 0 1.7.3 2.2 1 .5.6.8 1.5.8 2.6v.6h-5c0 .7.2 1.3.6 1.7.4.5 1 .7 1.6.7.4 0 .8 0 1.1-.3l.8-.7.8.6c-.6 1-1.5 1.4-2.8 1.4zm-.2-6.6c-.5 0-1 .2-1.3.6-.4.3-.6.9-.7 1.5h3.7c0-.7-.2-1.2-.5-1.6-.3-.3-.7-.5-1.2-.5zm12.3 4.5a1 1 0 00-.4-.8l-1.4-.4-1.5-.5c-.4-.2-.7-.5-.8-.7-.2-.3-.3-.6-.3-1 0-.6.3-1 .8-1.5a3 3 0 012-.6 3 3 0 012 .6c.5.4.8 1 .8 1.7h-1.3c0-.4-.2-.7-.5-1-.3-.2-.6-.3-1-.3-.5 0-.9.1-1.1.3a1 1 0 00-.4.8c0 .3 0 .5.3.7l1.3.4 1.6.5c.4.2.7.5.8.7.2.3.3.7.3 1 0 .7-.2 1.2-.8 1.6-.5.4-1.2.6-2 .6-.6 0-1.1 0-1.6-.3-.5-.2-.8-.5-1-.9-.3-.3-.5-.7-.5-1.2h1.3c0 .4.2.8.5 1 .3.3.8.4 1.3.4a2 2 0 001.1-.3c.3-.2.5-.4.5-.8zm4.6-7.2v1.8h1.4v1h-1.4v4.6c0 .3 0 .5.2.6 0 .2.3.3.6.3l.6-.1v1l-1 .1c-.5 0-1-.1-1.2-.5-.3-.3-.5-.8-.5-1.4v-4.6h-1.3v-1h1.3v-1.8h1.3zm2.4 5.4c0-.7.1-1.3.4-2 .3-.5.7-1 1.2-1.3.5-.3 1-.4 1.7-.4 1 0 1.9.3 2.5 1a4 4 0 011 2.8c0 .8-.2 1.5-.5 2a3.1 3.1 0 01-3 1.8c-1 0-1.8-.3-2.4-1a4 4 0 01-1-2.8zm1.3.2c0 .8.1 1.5.5 2s1 .7 1.5.7c.7 0 1.2-.2 1.6-.7.4-.6.5-1.3.5-2.2 0-.8-.1-1.4-.5-2-.4-.4-1-.7-1.6-.7-.6 0-1 .3-1.5.8-.4.4-.5 1.2-.5 2zm10.6-2.7h-.6c-.9 0-1.4.3-1.7 1v5.3h-1.3v-7.4h1.2v.9c.5-.7 1-1 1.8-1h.6v1.2zm9 4.3a1 1 0 00-.5-.8l-1.3-.4-1.5-.5-.9-.7-.2-1c0-.6.2-1 .7-1.5a3 3 0 012-.6 3 3 0 012 .6c.6.4.8 1 .8 1.7H284c0-.4-.1-.7-.4-1-.3-.2-.7-.3-1.1-.3-.5 0-.8.1-1 .3a1 1 0 00-.5.8c0 .3.1.5.4.7l1.3.4 1.5.5.9.7c.2.3.3.7.3 1 0 .7-.3 1.2-.8 1.6-.5.4-1.2.6-2 .6-.7 0-1.2 0-1.6-.3-.5-.2-.8-.5-1.1-.9-.3-.3-.4-.7-.4-1.2h1.3c0 .4.2.8.5 1 .3.3.7.4 1.2.4a2 2 0 001.2-.3c.3-.2.4-.4.4-.8zm2.5-1.8c0-.7.1-1.3.4-2 .3-.5.7-1 1.2-1.3.5-.3 1.1-.4 1.8-.4 1 0 1.8.3 2.4 1a4 4 0 011 2.8c0 .8-.2 1.5-.5 2a3.1 3.1 0 01-3 1.8c-1 0-1.7-.3-2.4-1a4 4 0 01-.9-2.8zm1.3.2c0 .8.2 1.5.5 2 .4.5 1 .7 1.6.7.6 0 1.1-.2 1.5-.7.4-.6.6-1.3.6-2.2 0-.8-.2-1.4-.6-2-.4-.4-1-.7-1.5-.7-.7 0-1.2.3-1.6.8-.3.4-.5 1.2-.5 2zm8.2-3.8v.8c.6-.6 1.3-1 2.2-1 1 0 1.8.5 2.2 1.3.2-.4.5-.7 1-1l1.3-.2c1.6 0 2.5.8 2.5 2.5v5H304v-4.9c0-.5-.1-.9-.3-1.2-.3-.2-.7-.4-1.3-.4-.4 0-.8.2-1.1.5-.3.2-.5.6-.6 1v5h-1.2v-4.8c0-1.1-.6-1.7-1.6-1.7-.9 0-1.4.4-1.7 1.1v5.4H295v-7.4h1.2zM32.6 221.2c0-1 .3-2 .9-2.7.5-.7 1.2-1 2-1 1 0 1.6.3 2.1.9v-3.9H39V225h-1.2v-.8c-.5.6-1.2 1-2.1 1-.9 0-1.6-.4-2.1-1.1-.6-.7-.9-1.6-.9-2.8zm1.3.2c0 .8.2 1.5.5 2 .4.4.9.7 1.5.7.8 0 1.4-.4 1.7-1.1v-3.4c-.4-.7-1-1-1.7-1-.6 0-1.1.2-1.5.7-.3.4-.5 1.1-.5 2zm10 3.7c-1 0-1.8-.3-2.4-1-.6-.6-1-1.5-1-2.6v-.2c0-.8.2-1.4.5-2 .2-.6.6-1 1.1-1.3a3 3 0 011.7-.5c1 0 1.7.3 2.2 1 .5.6.8 1.5.8 2.6v.6h-5c0 .7.2 1.3.6 1.7.4.5 1 .7 1.6.7.4 0 .8 0 1.1-.3l.8-.7.8.6c-.6 1-1.5 1.4-2.8 1.4zm-.1-6.6c-.5 0-1 .2-1.3.6-.4.3-.6.9-.7 1.5h3.7c0-.7-.2-1.2-.5-1.6-.3-.3-.7-.5-1.2-.5zm6.2-2.7v1.8h1.4v1H50v4.6c0 .3 0 .5.2.6.1.2.3.3.6.3l.6-.1v1l-1 .1c-.5 0-1-.1-1.2-.5-.3-.3-.5-.8-.5-1.4v-4.6h-1.3v-1h1.3v-1.8H50zm4.6 0v1.8H56v1h-1.4v4.6c0 .3 0 .5.2.6 0 .2.3.3.6.3l.6-.1v1l-1 .1c-.5 0-1-.1-1.3-.5-.2-.3-.4-.8-.4-1.4v-4.6H52v-1h1.3v-1.8h1.3zm6 9.3c-1 0-2-.3-2.5-1-.7-.6-1-1.5-1-2.6v-.2c0-.8.2-1.4.4-2 .3-.6.7-1 1.2-1.3a3 3 0 011.7-.5c1 0 1.7.3 2.2 1 .5.6.8 1.5.8 2.6v.6h-5c0 .7.2 1.3.6 1.7.4.5 1 .7 1.6.7.4 0 .8 0 1.1-.3l.8-.7.8.6c-.6 1-1.5 1.4-2.8 1.4zm-.2-6.6c-.6 0-1 .2-1.3.6-.4.3-.6.9-.7 1.5h3.7c0-.7-.2-1.2-.5-1.6-.3-.3-.7-.5-1.2-.5z"/><path fill="#606267" d="M20.6 104h-1.2v-7.8l-2.3.8v-1l3.3-1.3h.2v9.3zm9.5 0h-6v-.8l3.2-3.6 1-1.3.2-1c0-.5-.1-1-.4-1.2-.3-.3-.7-.5-1.2-.5-.6 0-1 .2-1.4.5-.3.3-.4.8-.4 1.4h-1.2c0-.9.3-1.6.8-2a3 3 0 012.2-.9 3 3 0 012 .7c.5.5.8 1 .8 1.8 0 1-.6 2-1.7 3.3l-2.5 2.6H30v1zm7-4c0 1.4-.2 2.5-.6 3.1-.5.7-1.2 1-2.2 1-1 0-1.8-.3-2.2-1-.5-.6-.8-1.6-.8-2.9v-1.6c0-1.3.3-2.3.7-3 .5-.6 1.2-1 2.2-1 1 0 1.8.4 2.2 1 .5.6.8 1.6.8 3v1.5zM36 98.6c0-1-.2-1.8-.4-2.2-.3-.5-.8-.7-1.4-.7-.6 0-1 .2-1.3.7-.2.4-.4 1.1-.4 2v2c0 1 .1 1.7.4 2.2.3.4.8.7 1.4.7.5 0 1-.3 1.2-.7.3-.5.5-1.2.5-2.1v-2zm5.8-2c0-.5.2-1 .5-1.3.4-.4.8-.6 1.4-.6.5 0 1 .2 1.3.6.4.3.6.8.6 1.4v.4c0 .6-.2 1-.6 1.4-.3.3-.8.5-1.3.5-.6 0-1-.2-1.4-.5-.3-.4-.5-.8-.5-1.4v-.5zm.9.5c0 .4 0 .6.2.8.2.3.5.4.8.4.3 0 .5-.1.7-.4.2-.2.3-.4.3-.8v-.5c0-.3 0-.6-.3-.8a1 1 0 00-.7-.3 1 1 0 00-.8.3l-.2.9v.4zm3.6 4.7c0-.5.2-1 .5-1.3.4-.4.8-.6 1.4-.6.5 0 1 .2 1.3.6.4.3.6.8.6 1.4v.4c0 .6-.2 1-.6 1.4-.3.4-.8.5-1.3.5-.6 0-1-.1-1.4-.5-.3-.3-.5-.8-.5-1.4v-.5zm.9.5c0 .4 0 .6.2.9.2.2.5.3.8.3.3 0 .5-.1.7-.3.2-.3.3-.5.3-.9v-.5c0-.3 0-.6-.3-.8a1 1 0 00-.7-.3 1 1 0 00-.8.3l-.2.9v.4zm-3.2 1.1l-.7-.4 4.5-7.2.7.4-4.5 7.2z"/><path fill="#3274E1" d="M69 99h128v2H69z"/><path fill="#D5D7D9" d="M197 99h147v2H197z"/><circle cx="192" cy="100" r="5" fill="#3274E1"/><path fill="#212121" d="M35 27.1V29H24.4l4.9 4.8L28 35l-7-7 7-7 1.3 1.3-5 4.8H35zM334.8 27.3l-.8.9a3 3 0 00-1.1 2.5h-1.8v-.4c0-1 .4-2 1-2.6l1.2-1.1c.3-.4.5-.8.5-1.3a1.8 1.8 0 10-3.6 0h-1.8a3.6 3.6 0 117.2 0c0 .8-.3 1.5-.8 2zm-1.9 7h-1.8v-1.8h1.8v1.8zM332 19a9 9 0 100 18 9 9 0 000-18z"/></svg>