<svg xmlns="http://www.w3.org/2000/svg" viewBox="0 0 210 143"><path fill="#005A9C" d="M52.35 24.41l16.96 57.64 16.95-57.64h45.96v5.73l-17.3 29.82c6.08 1.95 10.67 5.5 13.8 10.64 3.11 5.15 4.67 11.18 4.67 18.12 0 8.58-2.28 15.79-6.84 21.63s-10.47 8.77-17.71 8.77a21.23 21.23 0 01-14.27-5.2c-4.05-3.47-7.05-8.17-9-14.1l9.59-3.97c1.4 3.59 3.25 6.42 5.55 8.48 2.3 2.06 5.01 3.1 8.13 3.1 3.27 0 6.04-1.83 8.3-5.5 2.26-3.66 3.4-8.06 3.4-13.21 0-5.7-1.22-10.1-3.63-13.21-2.81-3.67-7.22-5.5-13.22-5.5h-4.67V64.4l16.37-28.3H95.63l-1.12 1.92-24.03 81.08H69.3L51.77 60.41l-17.54 58.7h-1.17L5.01 24.4h12.27l16.96 57.64L45.7 43.24 40.08 24.4h12.28z"/><path d="M196.02 24.41c-2.41 0-4.57.87-6.21 2.54a8.86 8.86 0 00-.1 12.68 8.77 8.77 0 006.31 2.68c2.33 0 4.6-.94 6.36-2.66a8.94 8.94 0 00-6.35-15.24zm7.78 9.03c0 2.06-.8 3.98-2.26 5.39a7.86 7.86 0 01-5.57 2.29 7.63 7.63 0 01-5.42-2.31 7.74 7.74 0 01-2.28-5.45c0-2.03.84-4.02 2.36-5.56a7.47 7.47 0 015.41-2.21c2.14 0 4.05.8 5.55 2.3a7.64 7.64 0 012.22 5.55zm-7.53-5.32h-3.83v10.14h1.92v-4.33h1.89l2.06 4.33h2.14l-2.27-4.62c1.47-.3 2.32-1.3 2.32-2.74 0-1.84-1.4-2.78-4.22-2.78zm-.35 1.24c1.79 0 2.6.5 2.6 1.74 0 1.19-.81 1.62-2.55 1.62h-1.62v-3.36h1.57zM180.97 23.88l1.99 12.1-7.04 13.46s-2.7-5.71-7.2-8.87c-3.77-2.67-6.24-3.25-10.1-2.45-4.94 1.02-10.55 6.93-13 14.23-2.93 8.73-2.96 12.95-3.06 16.83-.17 6.23.81 9.9.81 9.9s-4.27-7.9-4.23-19.49c.02-8.27 1.33-15.76 5.15-23.16 3.36-6.5 8.37-10.4 12.8-10.86 4.6-.48 8.22 1.73 11.03 4.13 2.94 2.51 5.91 8 5.91 8l6.92-13.82zM181.84 92.29s-3.11 5.56-5.05 7.7c-1.94 2.15-5.4 5.92-9.69 7.81-4.28 1.89-6.53 2.24-10.76 1.84-4.23-.4-8.16-2.86-9.54-3.88s-4.9-4.03-6.89-6.84c-2-2.8-5.1-8.41-5.1-8.41s1.73 5.62 2.82 8a51.8 51.8 0 005.26 9.24c2.54 3.41 7.48 9.28 14.98 10.6 7.5 1.34 12.65-2.03 13.92-2.85a38.36 38.36 0 005.67-4.88 42.82 42.82 0 004.38-5.78 53.31 53.31 0 001.8-3.21l-1.8-9.33z"/></svg>