<svg xmlns="http://www.w3.org/2000/svg" fill="none" viewBox="0 0 67 10" height="10" width="67"><path fill="#D8D8D8" d="M31 0h2v2h-2zM31 2h2v2h-2zM35 2h2v2h-2zM39 2h2v2h-2zM31 4h2v2h-2zM35 4h2v2h-2zM39 4h2v2h-2zM31 6h2v2h-2zM35 6h2v2h-2zM39 6h2v2h-2zM31 8h2v2h-2zM35 8h2v2h-2zM39 8h2v2h-2zM33 0h2v2h-2zM37 0h2v2h-2zM0 3h1v1H0zM0 4h1v1H0zM2 4h1v1H2zM4 4h1v1H4zM0 5h1v1H0zM2 5h1v1H2zM4 5h1v1H4zM6 5h1v1H6zM7 5h1v1H7zM11 6h1v1h-1zM7 3h1v1H7zM11 3h1v1h-1zM8 5h1v1H8zM12 6h1v1h-1zM20 5h1v1h-1zM25 5h1v1h-1zM21 5h1v1h-1zM26 5h1v1h-1zM26 4h1v1h-1zM25 3h1v1h-1zM25 7h1v1h-1zM24 5h1v1h-1zM14 6h1v1h-1zM12 5h1v1h-1zM20 4h1v1h-1zM14 5h1v1h-1zM10 5h1v1h-1zM8 3h1v1H8zM12 3h1v1h-1zM20 2h1v1h-1zM8 6h1v1H8zM12 7h1v1h-1zM20 6h1v1h-1zM22 6h1v1h-1zM24 6h1v1h-1zM22 7h1v1h-1zM14 7h1v1h-1zM8 4h1v1H8zM12 4h1v1h-1zM20 3h1v1h-1zM22 3h1v1h-1zM22 4h1v1h-1zM24 4h1v1h-1zM14 4h1v1h-1zM16 4h1v1h-1zM17 3h1v1h-1zM17 5h1v1h-1zM17 7h1v1h-1zM16 7h1v1h-1zM18 6h1v1h-1zM18 3h1v1h-1zM14 2h1v1h-1zM10 4h1v1h-1zM8 7h1v1H8zM12 8h1v1h-1zM20 7h1v1h-1zM7 7h1v1H7zM11 8h1v1h-1zM0 6h1v1H0zM2 6h1v1H2zM4 6h1v1H4zM6 6h1v1H6zM0 7h1v1H0zM4 7h1v1H4zM1 3h1v1H1zM3 3h1v1H3zM51 5h1v1h-1zM59 5h1v1h-1zM65 5h1v1h-1zM45 6h1v1h-1zM62 5h1v1h-1zM52 5h1v1h-1zM63 5h1v1h-1zM63 4h1v1h-1zM62 3h1v1h-1zM62 7h1v1h-1zM61 5h1v1h-1zM49 6h1v1h-1zM51 4h1v1h-1zM59 4h1v1h-1zM65 4h1v1h-1zM45 5h1v1h-1zM49 5h1v1h-1zM51 2h1v1h-1zM59 2h1v1h-1zM45 3h1v1h-1zM46 3h1v1h-1zM47 4h1v1h-1zM47 5h1v1h-1zM46 6h1v1h-1zM51 6h1v1h-1zM59 6h1v1h-1zM65 6h1v1h-1zM45 7h1v1h-1zM53 6h1v1h-1zM61 6h1v1h-1zM53 7h1v1h-1zM49 7h1v1h-1zM51 3h1v1h-1zM59 3h1v1h-1zM65 3h1v1h-1zM66 3h1v1h-1zM45 4h1v1h-1zM53 3h1v1h-1zM53 4h1v1h-1zM61 4h1v1h-1zM49 4h1v1h-1zM55 4h1v1h-1zM56 3h1v1h-1zM56 5h1v1h-1zM56 7h1v1h-1zM55 7h1v1h-1zM57 6h1v1h-1zM57 3h1v1h-1zM49 2h1v1h-1zM51 7h1v1h-1zM59 7h1v1h-1zM65 7h1v1h-1zM45 8h1v1h-1z"/></svg>